<svg width="190" height="190" fill="none" xmlns="http://www.w3.org/2000/svg"><rect width="190" height="190" rx="6" fill="#F6F7FB"/><path fill-rule="evenodd" clip-rule="evenodd" d="M45 79a4 4 0 014-4h92a4 4 0 014 4v7a4 4 0 01-4 4H49a4 4 0 01-4-4v-7zm0 20a4 4 0 014-4h92a4 4 0 014 4v7a4 4 0 01-4 4H49a4 4 0 01-4-4v-7z" fill="#fff" stroke="#DAE4ED" stroke-width="1.5"/><path fill-rule="evenodd" clip-rule="evenodd" d="M45 124a4 4 0 014-4h92a4 4 0 014 4v7a4 4 0 01-4 4H49a4 4 0 01-4-4v-7z" fill="#2C7BE5"/><path fill-rule="evenodd" clip-rule="evenodd" d="M69 57a2 2 0 012-2h48a2 2 0 012 2v6a2 2 0 01-2 2H71a2 2 0 01-2-2v-6zm11 90a2 2 0 012-2h26a2 2 0 012 2v6a2 2 0 01-2 2H82a2 2 0 01-2-2v-6z" fill="#BFD4E4"/><path d="M0 6a6 6 0 016-6h178a6 6 0 016 6v14H0V6z" fill="#DDEAF3"/><path fill-rule="evenodd" clip-rule="evenodd" d="M10.5 14a3.5 3.5 0 100-7 3.5 3.5 0 000 7zm10 0a3.5 3.5 0 100-7 3.5 3.5 0 000 7zM34 10.5a3.5 3.5 0 11-7 0 3.5 3.5 0 017 0z" fill="#F6F7FB"/></svg>