<svg width="190" height="190" fill="none" xmlns="http://www.w3.org/2000/svg"><rect width="190" height="190" rx="6" fill="#F6F7FB"/><path fill-rule="evenodd" clip-rule="evenodd" d="M40 107a2 2 0 012-2h106a2 2 0 012 2v6a2 2 0 01-2 2H42a2 2 0 01-2-2v-6zm0-15a2 2 0 012-2h106a2 2 0 012 2v6a2 2 0 01-2 2H42a2 2 0 01-2-2v-6z" fill="#DDEAF3"/><g clip-path="url(#clip0_18_2628)"><path d="M107.821 51.805L95.27 48.04a.937.937 0 00-.54 0l-12.55 3.765a.938.938 0 00-.669.898V66.51c0 1.796.728 3.635 2.161 5.464 1.095 1.398 2.61 2.801 4.503 4.171 3.18 2.302 6.311 3.714 6.443 3.773a.936.936 0 00.766 0c.132-.059 3.263-1.47 6.443-3.773 1.893-1.37 3.408-2.773 4.503-4.17 1.434-1.83 2.16-3.669 2.16-5.465V52.703a.933.933 0 00-.668-.898z" fill="#BFD4E4"/></g><path fill-rule="evenodd" clip-rule="evenodd" d="M51 129a4 4 0 014-4h36a4 4 0 014 4v7a4 4 0 01-4 4H55a4 4 0 01-4-4v-7zm49 0a4 4 0 014-4h36a4 4 0 014 4v7a4 4 0 01-4 4h-36a4 4 0 01-4-4v-7z" fill="#2C7BE5"/><path d="M0 6a6 6 0 016-6h178a6 6 0 016 6v14H0V6z" fill="#DDEAF3"/><path fill-rule="evenodd" clip-rule="evenodd" d="M10.5 14a3.5 3.5 0 100-7 3.5 3.5 0 000 7zm10 0a3.5 3.5 0 100-7 3.5 3.5 0 000 7zM34 10.5a3.5 3.5 0 11-7 0 3.5 3.5 0 017 0z" fill="#F6F7FB"/><defs><clipPath id="clip0_18_2628"><path fill="#fff" transform="translate(79 48)" d="M0 0h32v32H0z"/></clipPath></defs></svg>