<svg width="190" height="190" fill="none" xmlns="http://www.w3.org/2000/svg"><rect width="190" height="190" rx="6" fill="#F6F7FB"/><path fill-rule="evenodd" clip-rule="evenodd" d="M83 179a4 4 0 100-8 4 4 0 000 8zm12 0a4 4 0 100-8 4 4 0 000 8zm12 0a4 4 0 100-8 4 4 0 000 8z" fill="#DDEAF3"/><rect x="10" y="30" width="170" height="130" rx="4" fill="#fff" stroke="#DAE4ED" stroke-width="1.5"/><path d="M10.3 34a4 4 0 014-4H176a4 4 0 014 4v16H10.3V34z" fill="#BFD4E4"/><path fill-rule="evenodd" clip-rule="evenodd" d="M20 37a2 2 0 012-2h16a2 2 0 012 2v6a2 2 0 01-2 2H22a2 2 0 01-2-2v-6zm55 0a2 2 0 012-2h16a2 2 0 012 2v6a2 2 0 01-2 2H77a2 2 0 01-2-2v-6zm35 0a2 2 0 012-2h16a2 2 0 012 2v6a2 2 0 01-2 2h-16a2 2 0 01-2-2v-6z" fill="#F6F7FB"/><path fill-rule="evenodd" clip-rule="evenodd" d="M10.3 77h169.2H10.3z" fill="#fff"/><path d="M10.3 77h169.2" stroke="#DAE4ED" stroke-width="1.5"/><path fill-rule="evenodd" clip-rule="evenodd" d="M10.3 105h169.2H10.3z" fill="#fff"/><path d="M10.3 105h169.2" stroke="#DAE4ED" stroke-width="1.5"/><path fill-rule="evenodd" clip-rule="evenodd" d="M10.3 133h169.2H10.3z" fill="#fff"/><path d="M10.3 133h169.2" stroke="#DAE4ED" stroke-width="1.5"/><path fill-rule="evenodd" clip-rule="evenodd" d="M41 60a2 2 0 012-2h20a2 2 0 012 2v6a2 2 0 01-2 2H43a2 2 0 01-2-2v-6zm-24.292 3c0 4.416 3.584 8 8 8s8-3.584 8-8-3.584-8-8-8-8 3.584-8 8zm10.4-3.2c0 1.328-1.072 2.4-2.4 2.4a2.397 2.397 0 01-2.4-2.4c0-1.328 1.072-2.4 2.4-2.4 1.328 0 2.4 1.072 2.4 2.4zm-7.2 6.384c.024-1.592 3.2-2.464 4.8-2.464 1.592 0 4.776.872 4.8 2.464a5.76 5.76 0 01-9.6 0z" fill="#BFD4E4"/><path fill-rule="evenodd" clip-rule="evenodd" d="M75 60a2 2 0 012-2h20a2 2 0 012 2v6a2 2 0 01-2 2H77a2 2 0 01-2-2v-6zm34 0a2 2 0 012-2h24a2 2 0 012 2v6a2 2 0 01-2 2h-24a2 2 0 01-2-2v-6z" fill="#DDEAF3"/><path fill-rule="evenodd" clip-rule="evenodd" d="M109 60a2 2 0 012-2h10a2 2 0 012 2v6a2 2 0 01-2 2h-10a2 2 0 01-2-2v-6z" fill="#BFD4E4"/><path fill-rule="evenodd" clip-rule="evenodd" d="M147 60a2 2 0 012-2h21a2 2 0 012 2v6a2 2 0 01-2 2h-21a2 2 0 01-2-2v-6z" fill="#DDEAF3"/><path fill-rule="evenodd" clip-rule="evenodd" d="M41 88a2 2 0 012-2h20a2 2 0 012 2v6a2 2 0 01-2 2H43a2 2 0 01-2-2v-6zm-24.292 3c0 4.416 3.584 8 8 8s8-3.584 8-8-3.584-8-8-8-8 3.584-8 8zm10.4-3.2c0 1.328-1.072 2.4-2.4 2.4a2.397 2.397 0 01-2.4-2.4c0-1.328 1.072-2.4 2.4-2.4 1.328 0 2.4 1.072 2.4 2.4zm-7.2 6.384c.024-1.592 3.2-2.464 4.8-2.464 1.592 0 4.776.872 4.8 2.464a5.76 5.76 0 01-9.6 0z" fill="#BFD4E4"/><path fill-rule="evenodd" clip-rule="evenodd" d="M75 88a2 2 0 012-2h20a2 2 0 012 2v6a2 2 0 01-2 2H77a2 2 0 01-2-2v-6zm34 0a2 2 0 012-2h24a2 2 0 012 2v6a2 2 0 01-2 2h-24a2 2 0 01-2-2v-6z" fill="#DDEAF3"/><rect x="109" y="86" width="10" height="10" rx="2" fill="#BFD4E4"/><path fill-rule="evenodd" clip-rule="evenodd" d="M147 88a2 2 0 012-2h21a2 2 0 012 2v6a2 2 0 01-2 2h-21a2 2 0 01-2-2v-6z" fill="#DDEAF3"/><path fill-rule="evenodd" clip-rule="evenodd" d="M41 116a2 2 0 012-2h20a2 2 0 012 2v6a2 2 0 01-2 2H43a2 2 0 01-2-2v-6zm-24.292 3c0 4.416 3.584 8 8 8s8-3.584 8-8-3.584-8-8-8-8 3.584-8 8zm10.4-3.2c0 1.328-1.072 2.4-2.4 2.4a2.397 2.397 0 01-2.4-2.4c0-1.328 1.072-2.4 2.4-2.4 1.328 0 2.4 1.072 2.4 2.4zm-7.2 6.384c.024-1.592 3.2-2.464 4.8-2.464 1.592 0 4.776.872 4.8 2.464a5.76 5.76 0 01-9.6 0z" fill="#BFD4E4"/><path fill-rule="evenodd" clip-rule="evenodd" d="M75 116a2 2 0 012-2h20a2 2 0 012 2v6a2 2 0 01-2 2H77a2 2 0 01-2-2v-6zm34 0a2 2 0 012-2h24a2 2 0 012 2v6a2 2 0 01-2 2h-24a2 2 0 01-2-2v-6z" fill="#DDEAF3"/><path fill-rule="evenodd" clip-rule="evenodd" d="M109 116a2 2 0 012-2h20a2 2 0 012 2v6a2 2 0 01-2 2h-20a2 2 0 01-2-2v-6z" fill="#BFD4E4"/><path fill-rule="evenodd" clip-rule="evenodd" d="M147 116a2 2 0 012-2h21a2 2 0 012 2v6a2 2 0 01-2 2h-21a2 2 0 01-2-2v-6z" fill="#DDEAF3"/><path fill-rule="evenodd" clip-rule="evenodd" d="M41 144a2 2 0 012-2h20a2 2 0 012 2v6a2 2 0 01-2 2H43a2 2 0 01-2-2v-6zm-24.292 3c0 4.416 3.584 8 8 8s8-3.584 8-8-3.584-8-8-8-8 3.584-8 8zm10.4-3.2c0 1.328-1.072 2.4-2.4 2.4a2.397 2.397 0 01-2.4-2.4c0-1.328 1.072-2.4 2.4-2.4 1.328 0 2.4 1.072 2.4 2.4zm-7.2 6.384c.024-1.592 3.2-2.464 4.8-2.464 1.592 0 4.776.872 4.8 2.464a5.76 5.76 0 01-9.6 0z" fill="#BFD4E4"/><path fill-rule="evenodd" clip-rule="evenodd" d="M75 144a2 2 0 012-2h20a2 2 0 012 2v6a2 2 0 01-2 2H77a2 2 0 01-2-2v-6zm34 0a2 2 0 012-2h24a2 2 0 012 2v6a2 2 0 01-2 2h-24a2 2 0 01-2-2v-6z" fill="#DDEAF3"/><path fill-rule="evenodd" clip-rule="evenodd" d="M109 144a2 2 0 012-2h14a2 2 0 012 2v6a2 2 0 01-2 2h-14a2 2 0 01-2-2v-6z" fill="#BFD4E4"/><path fill-rule="evenodd" clip-rule="evenodd" d="M147 144a2 2 0 012-2h21a2 2 0 012 2v6a2 2 0 01-2 2h-21a2 2 0 01-2-2v-6z" fill="#DDEAF3"/><path d="M0 6a6 6 0 016-6h178a6 6 0 016 6v14H0V6z" fill="#DDEAF3"/><path fill-rule="evenodd" clip-rule="evenodd" d="M10.5 14a3.5 3.5 0 100-7 3.5 3.5 0 000 7zm10 0a3.5 3.5 0 100-7 3.5 3.5 0 000 7zM34 10.5a3.5 3.5 0 11-7 0 3.5 3.5 0 017 0z" fill="#F6F7FB"/></svg>