<svg width="74" height="74" fill="none" xmlns="http://www.w3.org/2000/svg"><path d="M52.998 36.105v2.928c.016 1.646-1.147 3.638-2.566 4.453L8.35 67.788c-.754.438-1.434.453-1.901.15l-.695-.392-4.136-2.354a1.7 1.7 0 01-.302-.272c-.301-.317-.452-.8-.452-1.389l-.015-2.928 4.89 2.792 47.26-27.29z" fill="#DEDFFB"/><path d="M37.451 50.988l.79-.456c-3.91-4.362-2.692-12.785 3.633-14.626 1.195-.68 2.635-1.096 4.347-1.096 3.117 0 5.374 1.333 6.778 3.26v-1.965l-.03-30.687c0-.815-.288-1.374-.755-1.645v-.015L47.308.95c-.453-.287-1.102-.226-1.827.181L3.338 25.448c-1.404.83-2.566 2.823-2.566 4.453l.076 30.702v.217c1.367-2.203 3.735-3.78 7.121-3.78 4.563 0 7.286 2.845 8.181 6.248l1.015-.587-.016 4.65 2.084 1.237 7.758 4.634 8.302-4.815 8.392-4.876V60l.015-.453L37.436 56l.015-5.011z" fill="#4D5C75"/><path d="M37.451 50.21l-.02 5.785-16.68 9.689.021-5.766 16.68-9.708z" fill="#1C2841"/><path d="M18.731 58.417l15.066-8.756 2.694 1.772-15.067 8.755-2.693-1.77z" fill="#EAF0F6"/><path d="M27.006 69.25l16.687-9.698-.008 3.978-16.688 9.696.009-3.976z" fill="#1C2841"/><path d="M20.748 65.697L37.436 56l6.257 3.553-16.687 9.698-6.258-3.553z" fill="#4D5C75"/><path d="M20.765 59.924l-.016 5.773 6.257 3.553-.009 3.978-9.85-5.88.024-9.749 3.594 2.325z" fill="#101C32"/><path d="M52.229 3.773L5.753 63.41.848 60.603.772 29.901c0-1.63 1.162-3.622 2.566-4.453L45.481 1.131c.725-.407 1.374-.468 1.827-.18l4.92 2.822z" fill="#4D5C75"/><path d="M52.995 36.11L5.745 63.413l-.09-30.687c0-1.626 1.162-3.618 2.581-4.448l42.15-24.322c1.422-.83 2.584-.166 2.584 1.458l.026 30.694z" fill="#1C2841"/><path d="M7.392 32.72c0-1.005.849-2.457 1.745-2.982L49.635 6.37a1.126 1.126 0 011.691.975l.024 27.789L7.475 60.49l-.083-27.77z" fill="#fff"/><path d="M6.503 67.989l-.757-.443-4.123-2.35a1.469 1.469 0 01-.314-.276c-.295-.314-.443-.794-.443-1.384l-.018-2.934 4.898 2.813v2.935c.02.812.296 1.384.757 1.642v-.003z" fill="#DEDFFB"/><path d="M52.995 36.11l.01 2.928c.004 1.636-1.148 3.628-2.571 4.451L8.342 67.791c-1.433.826-2.59.166-2.595-1.47l-.007-2.929L52.995 36.11z" fill="#F8F9FE"/><path d="M30.894 51.66c0 1.035-.72 2.252-1.606 2.777-.886.51-1.606.106-1.606-.916 0-1.035.705-2.282 1.606-2.793.886-.495 1.606-.075 1.606.932z" fill="#BBBEC6"/><path d="M8.624 28.565a.234.234 0 010 .45 4.577 4.577 0 00-2.928 2.928.234.234 0 01-.45 0 4.584 4.584 0 00-2.928-2.928.234.234 0 010-.45 4.579 4.579 0 002.928-2.928.233.233 0 01.45 0 4.578 4.578 0 002.928 2.928z" fill="#fff"/><path d="M67.685 42.097l2.536 2.808-2.853 4.935-3.728-.74a22.849 22.849 0 01-2.747 2.9l-.845 5.555-4.046 2.34-2.505-1.45-.529-2.807c-.196 0-.392-.015-.588-.03l-3.714 5.026-2.867-1.63-2.506-1.464 2.505-5.721a7.544 7.544 0 01-.286-.453l-2.763.981-2.505-1.464-.015-4.65 4.392-3.516a21.382 21.382 0 011.147-3.834l-2.535-2.823 2.852-4.935 3.729.74a22.849 22.849 0 012.747-2.899l.845-5.555 4.045-2.34 2.506 1.465.528 2.807c.197 0 .393.016.589.03l3.698-5.04 2.883 1.63 2.506 1.463-2.506 5.721c.106.151.211.302.302.468l2.747-.981 2.506 1.464.015 4.65-4.392 3.501a23.27 23.27 0 01-1.148 3.85z" fill="#656FEA"/><path d="M56.007 59.898L53.5 58.44l-.863-4.577 2.505 1.457.864 4.578zM68.81 31.653l-2.505-1.456 4.403-1.563 2.505 1.457-4.403 1.562zm-7.041-2.727l2.505 1.457c1.596.926 2.585 2.898 2.592 5.7.015 5.644-3.949 12.51-8.86 15.346L55.5 49.971c4.912-2.836 8.876-9.703 8.86-15.346-.008-2.802-.996-4.773-2.591-5.7zM51.687 52.047l-2.507-1.456c1.615.939 3.852.806 6.321-.62l2.506 1.458c-2.468 1.424-4.704 1.557-6.32.618zm15.598-30.262l-2.505-1.457 2.874 1.638 2.505 1.456-2.874-1.637zM45.805 59l-2.508-1.456 2.502-5.721 2.505 1.457-2.5 5.72zm17.773-32.174l-2.506-1.456 3.708-5.042 2.505 1.457-3.707 5.041z" fill="#6F93F1"/><path d="M48.306 53.28l-2.508-1.456a7.566 7.566 0 01-1.156-2.508l2.506 1.456c.261.978.655 1.815 1.156 2.509h.002zm12.508-26.177l-2.505-1.457a7.454 7.454 0 012.762-.276l2.506 1.456a7.455 7.455 0 00-2.763.277zM47.13 44.17l-2.506-1.456a22.585 22.585 0 011.137-3.833l2.507 1.457a22.551 22.551 0 00-1.138 3.834v-.002zm5.19-10.843l-2.506-1.457a22.603 22.603 0 012.754-2.912l2.506 1.457a22.604 22.604 0 00-2.755 2.912z" fill="#5564D7"/><path d="M42.745 52.34l-2.506-1.458-.015-4.649 2.507 1.459.014 4.647z" fill="#6BB4F9"/><path d="M42.731 47.691l-2.505-1.456 4.398-3.52 2.506 1.456-4.399 3.52z" fill="#6F93F1"/><path d="M55.907 24.864l-2.505-1.455 4.045-2.337 2.505 1.457-4.045 2.335z" fill="#6BB4F9"/><path d="M55.074 30.416l-2.506-1.457.834-5.55 2.505 1.457-.833 5.55zm-6.806 9.923l-2.506-1.457-2.525-2.82 2.506 1.457 2.525 2.82zm.323-7.761l-2.506-1.456 3.729.75 2.505 1.456-3.728-.75z" fill="#6F93F1"/><path d="M45.743 37.519l-2.506-1.457 2.847-4.94 2.505 1.457-2.846 4.94z" fill="#6BB4F9"/><path d="M73.228 34.74l-4.399 3.516a22.809 22.809 0 01-1.138 3.835l2.53 2.814-2.856 4.94-3.725-.746a22.561 22.561 0 01-2.755 2.906l-.833 5.555-4.045 2.336-.862-4.576c-.981.274-1.91.362-2.762.279l-3.714 5.042L45.805 59l2.5-5.72a7.568 7.568 0 01-1.156-2.51l-4.404 1.568-.014-4.65 4.399-3.516c.255-1.277.637-2.56 1.138-3.834l-2.525-2.82 2.848-4.94 3.728.748a22.611 22.611 0 012.755-2.911l.833-5.55 4.046-2.337.861 4.573a7.455 7.455 0 012.763-.276l3.708-5.041 2.874 1.637-2.504 5.72c.503.694.895 1.535 1.156 2.511l4.403-1.562.014 4.65zM58.007 51.428c4.912-2.836 8.875-9.702 8.86-15.346-.015-5.64-4.006-7.914-8.918-5.078-4.905 2.832-8.872 9.7-8.857 15.34.015 5.646 4.01 7.916 8.915 5.084z" fill="#656FEA"/><path d="M66.872 36.08c.015 5.644-3.955 12.512-8.86 15.35-4.906 2.823-8.906.559-8.921-5.087-.016-5.631 3.954-12.515 8.86-15.337 4.906-2.838 8.906-.572 8.92 5.073z" fill="#fff"/><path d="M15.195 28.022l.075 26.809-1.041.602-.076-26.81 1.042-.601zM12.46 54.585l.006 1.866-1.615.931-.005-1.864 1.614-.933zm-.047-16.578l.006 1.854-1.615.93-.005-1.853 1.614-.931zm.012 4.15l.004 1.854-1.613.932-.005-1.855 1.614-.932zm.012 4.14l.005 1.853-1.614.932-.005-1.854 1.614-.931zm.01 4.139l.007 1.865-1.616.931-.004-1.865 1.614-.931zm-.046-16.58l.006 1.866-1.615.93-.005-1.865 1.614-.931zm-.012-4.15l.006 1.865-1.614.931-.006-1.864 1.614-.932z" fill="#E3E7F0"/><path d="M50.434 24.845l.002 1.197-1.989 1.147-.004-1.196 1.991-1.148z" fill="#DD7B73"/><path d="M50.413 18.108l.004 1.195-9.776 5.646-.003-1.197 9.775-5.644zm-3.33 8.67l.003 1.197-11.491 6.636-.003-1.197 11.491-6.636z" fill="#E3E7F0"/><path d="M47.074 23.415l.003 1.197-9.316 5.378-.003-1.197 9.316-5.378z" fill="#A8B6CC"/><path d="M38.817 24.802L38.822 26 31.4 30.283l-.003-1.197 7.42-4.284zm-4.38-.84l.003 1.198-7.411 4.278-.003-1.196 7.411-4.28z" fill="#E3E7F0"/><path d="M30.681 18.648l2.73 1.555L30.7 24.89l-.734-.43 1.973-3.405-1.986-1.133.729-1.274z" fill="#F45170"/><path d="M29.12 40.725l2.4 1.368-2.395 4.123-.735-.428 1.645-2.84-1.655-.955.74-1.268z" fill="#DBA660"/><path d="M34.464 34.064l.005 1.195-10.32 5.96-.003-1.197 10.318-5.958z" fill="#E3E7F0"/><path d="M36.632 29.444l.004 1.197-9.588 5.535-.004-1.197 9.588-5.535z" fill="#A8B6CC"/><path d="M30.282 29.73l.003 1.197-8.369 4.83-.003-1.195 8.369-4.831z" fill="#E3E7F0"/><path d="M25.196 29.297l.003 1.197-6.641 3.834-.003-1.195 6.641-3.836z" fill="#89C656"/><path d="M20.512 24.518l.734.43-1.973 3.418 1.987 1.12-.73 1.276-2.73-1.546 2.712-4.698zm8.412-2.329l.005 1.196-6.641 3.834-.005-1.196 6.641-3.834z" fill="#F45170"/><path d="M20.245 45.848l.743.414-1.656 2.866 1.666.928-.74 1.279-2.4-1.357 2.387-4.13zm7.304-2.07l.003 1.198-5.722 3.305-.004-1.198 5.723-3.304z" fill="#DBA660"/><path d="M47.054 16.677l.005 1.197-11.493 6.635-.003-1.197 11.491-6.635z" fill="#E3E7F0"/><path d="M50.404 14.743l.003 1.197-1.988 1.147-.003-1.195 1.988-1.149z" fill="#77B0DF"/><path d="M25.216 36.034l.003 1.198-6.642 3.834-.004-1.197 6.643-3.835z" fill="#E3E7F0"/><path d="M20.552 35.347l.004 1.197-1.99 1.147-.002-1.195 1.988-1.149z" fill="#B38044"/><path d="M50.423 21.481l.003 1.197-1.989 1.148-.003-1.196 1.99-1.149z" fill="#E3E7F0"/><path d="M22.325 41.072l.005 1.197-3.744 2.16-.004-1.195 3.743-2.162z" fill="#DD7B73"/><path d="M64.923 37.947c0 .18-.076.392-.181.588l-3.05 5.012a1.052 1.052 0 01-.377.392c-.15.09-.301.106-.422.03l-.664-.377c0-.015 0-.015-.015-.015-.212-.136-.197-.559.03-.936l2.566-4.227-1.902-.935h-.015l-.68-.393c-.014-.015-.014-.03-.03-.03l-3.17 11.366c-.09.302-.301.589-.528.725a.595.595 0 01-.211.075c-.075.015-.151-.015-.211-.045l-.665-.393c-.15-.075-.21-.317-.135-.619l.256-.92a.726.726 0 01-.166.136c-.136.075-.287.105-.392.045l-3.064-1.495h-.015l-.68-.392c-.105-.06-.166-.196-.166-.377s.076-.393.181-.574l3.05-5.011c.093-.163.222-.302.377-.408.15-.075.302-.105.407-.03l.664.392h.03c.212.151.197.574-.03.951L53.15 44.71l1.902.92c.015 0 .015.016.015.016l.68.392c.045.03.06.06.09.09l3.215-11.486c.09-.317.302-.604.529-.74.075-.03.136-.06.21-.06a.288.288 0 01.197.03l.68.392c.15.091.21.318.12.62l-.241.905.06-.06c.151-.076.287-.106.392-.046l3.05 1.495c.015 0 .03.015.03.015l.649.377c.12.06.196.196.196.377z" fill="#DF3260"/><path d="M61.68 36.076l-.68-.394 3.055 1.494.68.396-3.056-1.496z" fill="#F45170"/><path d="M64.08 37.19l.678.394a.24.24 0 00-.025-.012l-.68-.394.026.012zm-3.157 5.842l-.68-.393 2.591-4.276.68.396-2.591 4.273z" fill="#F45170"/><path d="M60.91 43.98l-.68-.394a.303.303 0 01-.012-.008c-.214-.142-.204-.563.026-.94l.679.394c-.23.377-.242.8-.027.94a.36.36 0 00.013.008zm-4.834 5.206l-.679-.396c-.154-.089-.211-.326-.13-.623l.68.395c-.082.296-.025.535.13.624zm-2.95-4.432l-.678-.392 2.606 1.272.68.394-2.607-1.274zm1.946.89l.68.393a.255.255 0 00-.018-.009l-.68-.394a.234.234 0 01.018.01zm6.22-9.52l-.68-.392c.139-.081.278-.104.388-.05l.68.393c-.111-.053-.25-.03-.389.05z" fill="#F45170"/><path d="M60.893 37.477l-.68-.396c-.215-.125-.224-.519-.016-.902.096-.184.24-.339.415-.449l.68.394c-.177.11-.32.265-.417.449-.207.383-.2.777.018.904z" fill="#F45170"/><path d="M61.291 36.124c.14-.08.278-.102.388-.048l3.054 1.496c.12.054.185.19.185.37a1.148 1.148 0 01-.18.587L61.7 43.54c-.094.163-.227.3-.388.4-.15.088-.304.106-.416.032-.213-.14-.202-.562.027-.94l2.59-4.274-2.607-1.274c-.229-.117-.243-.52-.03-.911.096-.184.24-.339.415-.449z" fill="#DF3260"/><path d="M59.989 33.87l.677.392a.311.311 0 00-.199-.033.57.57 0 00-.204.074l-.679-.394a.568.568 0 01.204-.076c.069-.01.14.002.2.036zm-4.043 14.692l-.679-.395 3.784-13.53.68.395-3.785 13.53z" fill="#F45170"/><path d="M59.729 35.032l-.68-.396c.084-.3.275-.559.537-.727l.679.394a1.269 1.269 0 00-.536.729z" fill="#F45170"/><path d="M60.263 34.302a.566.566 0 01.204-.075c.294-.038.44.257.326.663L57.01 48.424a1.26 1.26 0 01-.528.721.551.551 0 01-.206.074c-.294.038-.439-.256-.329-.658l3.783-13.53c.083-.3.273-.56.534-.73z" fill="#DF3260"/><path d="M55.053 39.133l.68.395c-.113-.065-.259-.045-.405.04l-.68-.395c.147-.084.293-.105.405-.04zm-.113.833l-.68-.394c.095-.163.228-.3.388-.399l.68.395a1.13 1.13 0 00-.388.398z" fill="#F45170"/><path d="M51.9 44.982l-.68-.394 3.042-5.016.68.394-3.042 5.016z" fill="#F45170"/><path d="M51.886 45.928l-.68-.392c-.105-.062-.164-.195-.165-.369 0-.18.066-.392.18-.58l.68.393c-.11.175-.173.375-.181.582 0 .175.06.306.166.366z" fill="#F45170"/><path d="M55.328 39.568c.15-.088.304-.106.416-.032.213.145.202.561-.027.945l-2.59 4.273 2.607 1.274c.229.113.243.52.03.906-.096.183-.24.338-.415.448-.138.081-.278.103-.388.05l-3.058-1.495c-.115-.055-.181-.191-.181-.375 0-.18.063-.393.178-.58l3.04-5.016c.094-.163.227-.3.388-.398z" fill="#DF3260"/></svg>