<svg width="74" height="62" fill="none" xmlns="http://www.w3.org/2000/svg"><path d="M66.547 20.65c.015 6.37-4.468 14.098-9.992 17.283L18.804 59.729c-3.245 1.872-6.174 2.038-8.287.815l-.106-.06c-.015 0-.015-.016-.015-.016l-6.219-3.607C2.094 55.654.797 53.057.781 49.389c-.015-6.611 4.151-14.52 9.646-18.762a15.832 15.832 0 01-.136-2.143c-.03-9.465 6.626-21.012 14.867-25.766C29.28.318 33.023.106 35.74 1.676l6.324 3.698a7.444 7.444 0 011.887 1.57c-.151-.181-.317-.347-.483-.513 2.083-.785 3.924-.695 5.358.15l5.691 3.291c1.041-.03 1.962.212 2.762.665l6.295 3.667c.015.015.03.015.045.03 1.796 1.042 2.913 3.261 2.928 6.416z" fill="#CCCECE"/><path d="M73.219 34.774l-.014-4.84-2.997-1.742-.483.28a6.753 6.753 0 00-1.081-1.546l1.773-3.08-4.587-2.665-1.403-.744-1.773 3.069c-.594-.166-1.246-.209-1.926-.177l-.001-.477-3-1.743-4.187 2.418.008 2.845a24.442 24.442 0 00-4.903 5.223l2.998 1.742-4.586-2.666-.196-.094-2.973 5.113 1.78 1.034c-1.015 2.24-1.732 4.563-2.025 6.804l-2.509 1.45.014 4.84 2.998 1.742.474-.272c.314.586.673 1.117 1.097 1.545l-1.772 3.03 2.998 1.742 2.993 1.706 1.772-3.06c.595.166 1.247.21 1.926.18v.465l3 1.743 4.186-2.418-.007-2.836a24.537 24.537 0 004.904-5.223l1.784 1.009 2.974-5.15-1.766-1.027a24.975 24.975 0 002.009-6.774l2.5-1.446zM62.57 45.749c-2.31 3.677-6.265 7.382-10.842 4.69-4.545-2.677-2.995-8.426.57-10.305.259-.394.51-.787.736-1.203.887-1.646 2.37-4.088 2.445-5.973.131-3.161 2.568-5.836 5.837-5.836 3.061 0 5.967 2.684 5.837 5.836-.178 4.299-2.294 9.153-4.583 12.79z" fill="#4878FE"/><path d="M63.622 14.227a14.816 14.816 0 00-.447-.23 5.564 5.564 0 00-.463-.17 2.443 2.443 0 00-.479-.139c-1.28-.294-2.792-.123-4.413.57-.462-2.022-1.496-3.44-2.932-4.15-.045-.03-.108-.045-.154-.077a8.278 8.278 0 00-.356-.139s-.015 0-.03-.015a.317.317 0 01.17 0 5.13 5.13 0 012.763.664l6.341 3.686z" fill="#CCCECE"/><path d="M55.027 10.17c-.045-.016-.092-.046-.139-.062-.045-.03-.108-.046-.154-.077a8.396 8.396 0 00-.356-.14s-.015 0-.03-.014c-.124-.047-.263-.079-.401-.124a2.092 2.092 0 00-.447-.094 2.084 2.084 0 00-.449-.06h-.06c-.974-.079-2.038.075-3.164.509a11.42 11.42 0 00-1.775.848 13.1 13.1 0 00-1.82 1.25c-.417-2.485-1.374-4.444-2.763-5.77 2.084-.789 3.919-.695 5.355.138l5.695 3.303.508.292zM10.512 60.541L4.176 56.86C2.086 55.646.792 53.063.78 49.388c-.018-6.612 4.147-14.526 9.644-18.757l6.337 3.683c-5.498 4.231-9.66 12.147-9.643 18.757.01 3.675 1.306 6.258 3.393 7.471z" fill="#D9DDDD"/><path d="M42.064 5.37c-2.7-1.573-6.45-1.359-10.585 1.034-8.225 4.753-14.876 16.295-14.846 25.77 0 .756.047 1.466.124 2.145l-6.326-3.688a15.51 15.51 0 01-.139-2.145c-.03-9.474 6.619-21.017 14.86-25.77C29.273.323 33.023.108 35.739 1.682l6.326 3.688z" fill="#CCCECE"/><path d="M66.543 20.647c.013 6.373-4.458 14.093-9.984 17.287l-37.755 21.8c-6.429 3.708-11.664.736-11.69-6.665-.016-6.61 4.15-14.523 9.65-18.759a20.247 20.247 0 01-.14-2.139c-.027-9.468 6.624-21.022 14.858-25.77 7.373-4.263 13.51-1.61 14.747 5.803.61-.486 1.207-.902 1.819-1.25 4.776-2.762 8.747-1.222 9.775 3.306 4.914-2.098 8.691.57 8.72 6.387z" fill="#EAEFEF"/><path d="M63.622 14.227a14.816 14.816 0 00-.447-.23 5.564 5.564 0 00-.463-.17 2.443 2.443 0 00-.479-.139c-1.28-.294-2.792-.123-4.413.57-.462-2.022-1.496-3.44-2.932-4.15-.045-.03-.108-.045-.154-.077a8.278 8.278 0 00-.356-.139s-.015 0-.03-.015a.317.317 0 01.17 0 5.13 5.13 0 012.763.664l6.341 3.686z" fill="#CCCECE"/><path d="M55.027 10.17c-.045-.016-.092-.046-.139-.062-.045-.03-.108-.046-.154-.077a8.396 8.396 0 00-.356-.14s-.015 0-.03-.014c-.124-.047-.263-.079-.401-.124a2.092 2.092 0 00-.447-.094 2.084 2.084 0 00-.449-.06h-.06c-.974-.079-2.038.075-3.164.509a11.42 11.42 0 00-1.775.848 13.1 13.1 0 00-1.82 1.25c-.417-2.485-1.374-4.444-2.763-5.77 2.084-.789 3.919-.695 5.355.138l5.695 3.303.508.292zM10.512 60.541L4.176 56.86C2.086 55.646.792 53.063.78 49.388c-.018-6.612 4.147-14.526 9.644-18.757l6.337 3.683c-5.498 4.231-9.66 12.147-9.643 18.757.01 3.675 1.306 6.258 3.393 7.471z" fill="#D9DDDD"/><path d="M42.064 5.37c-2.7-1.573-6.45-1.359-10.585 1.034-8.225 4.753-14.876 16.295-14.846 25.77 0 .756.047 1.466.124 2.145l-6.326-3.688a15.51 15.51 0 01-.139-2.145c-.03-9.474 6.619-21.017 14.86-25.77C29.273.323 33.023.108 35.739 1.682l6.326 3.688z" fill="#CCCECE"/><path d="M46.547 26.914c-.966 5.464-4.694 11.064-9.087 13.6-2.626 1.51-5.01 1.66-6.716.604.03.015.045.045.075.06l-1.192-.694c-.876-.513-1.57-1.328-2.053-2.43l-.62.513-1.192-.694 1.66-4.348 2.733.71 1.192.694-1.555 1.283c.287 1.223.846 2.128 1.585 2.747 1.344.453 3.05.197 4.891-.86 3.683-2.128 6.823-6.838 7.608-11.411l1.479-.483 1.192.709z" fill="#DB9952"/><path d="M47.906 20.936l-1.6 4.332-2.778-.603-1.207-.695 1.54-1.313c-.272-1.238-.816-2.158-1.555-2.777-1.344-.453-3.05-.181-4.89.875-3.684 2.129-6.823 6.838-7.639 11.412l-1.449.452-1.192-.71c.95-5.463 4.68-11.033 9.072-13.569 2.58-1.494 4.95-1.675 6.656-.68l1.193.695a.74.74 0 00-.106-.045c.92.498 1.645 1.328 2.143 2.445l.604-.513 1.208.694z" fill="#F4462F"/><path d="M45.072 27.383l-1.195-.694 1.475-.479 1.197.696-1.477.477z" fill="#CE8E4E"/><path d="M46.535 22.099l-1.197-.695 1.365-1.162 1.197.694-1.365 1.163zm-3.011 2.561l-1.197-.694 1.538-1.313 1.197.694-1.538 1.313z" fill="#E5392C"/><path d="M31.876 39.35l-1.197-.696c1.435.835 3.418.692 5.588-.561 3.684-2.129 6.82-6.832 7.61-11.404l1.195.694c-.789 4.574-3.924 9.279-7.61 11.406-2.168 1.252-4.151 1.394-5.586.561z" fill="#E8A658"/><path d="M41.79 19.497l1.195.694c1.007.584 1.74 1.651 2.077 3.158l-1.197-.695c-.335-1.506-1.07-2.573-2.075-3.157z" fill="#FF5230"/><path d="M30.823 41.181l-1.197-.694c-1.198-.698-2.075-1.97-2.484-3.763l1.197.696c.408 1.793 1.286 3.064 2.485 3.761z" fill="#E8A658"/><path d="M26.952 38.57l-1.196-.696 1.66-4.352 1.196.694-1.66 4.353z" fill="#CE8E4E"/><path d="M28.612 34.218l-1.197-.695 2.738.714 1.197.695-2.738-.714z" fill="#E8A658"/><path d="M28.612 34.218l2.738.714-1.56 1.275c.836 3.635 3.987 4.71 7.672 2.581 3.684-2.128 6.821-6.831 7.61-11.405l1.477-.477c-.962 5.47-4.704 11.074-9.082 13.6-4.4 2.542-8.14 1.258-9.128-3.087l-1.387 1.15 1.66-4.351z" fill="#DB9952"/><path d="M42.867 17.666l1.196.694c-1.71-.993-4.076-.815-6.657.676l-1.197-.696c2.581-1.49 4.95-1.668 6.658-.674z" fill="#FF5230"/><path d="M37.408 19.036c4.377-2.528 8.137-1.282 9.127 3.063l1.365-1.163-1.596 4.338-2.78-.614 1.538-1.313c-.815-3.645-3.965-4.72-7.651-2.593-3.685 2.128-6.82 6.831-7.632 11.417l-1.454.44c.962-5.47 4.68-11.035 9.081-13.575h.002z" fill="#F4462F"/><path d="M28.325 32.612l-1.197-.694c.962-5.472 4.681-11.037 9.081-13.578l1.197.695c-4.4 2.542-8.12 8.105-9.08 13.577z" fill="#FF5230"/><path d="M68.69 43.042l-4.587-2.666 1.785.979 4.585 2.665-1.782-.978zm-10.95 2.81a21.698 21.698 0 002.952-3.992l4.587 2.666a21.722 21.722 0 01-2.954 3.994l-4.587-2.666.002-.001z" fill="#3498DB"/><path d="M60.692 41.86a21.602 21.602 0 001.988-4.549l4.586 2.664a21.6 21.6 0 01-1.987 4.551l-4.587-2.666z" fill="#3498DB"/><path d="M56.633 58.638l-2.998-1.742-.008-2.835 2.999 1.742.007 2.835zm14.073-27.26l-3-1.743 2.502-1.443 2.997 1.742-2.5 1.443z" fill="#454FE4"/><path d="M54.117 48.783c1.285-.743 2.509-1.747 3.623-2.929l4.585 2.666c-1.114 1.182-2.338 2.186-3.622 2.928l-4.586-2.665zm8.563-11.474c.468-1.551.725-3.112.72-4.597l4.586 2.665c.004 1.484-.252 3.046-.72 4.598L62.68 37.31zm.72-4.597c-.004-1.478-.269-2.735-.744-3.744l4.586 2.666c.475 1.008.74 2.264.744 3.743L63.4 32.712zM47.485 49.447c1.69.98 4.034.836 6.632-.664l4.586 2.665c-2.597 1.5-4.942 1.645-6.633.664l-4.585-2.665z" fill="#3498DB"/><path d="M63.355 32.695l-4.586-2.664c1.193.691 1.932 2.158 1.938 4.235.012 4.201-2.961 9.323-6.6 11.424-1.837 1.06-3.5 1.159-4.7.462l4.588 2.665c1.198.697 2.86.598 4.699-.463 3.637-2.101 6.61-7.221 6.6-11.424-.006-2.077-.748-3.542-1.94-4.235z" fill="#D9DDDD"/><path d="M62.656 28.968c-.468-.994-1.143-1.748-1.973-2.23l4.586 2.665c.83.483 1.505 1.236 1.973 2.23l-2.293-1.332c-.09-.053-.212-.12-.302-.175l-.595-.347-.86-.498c-.162-.094-.41-.175-.536-.313z" fill="#3498DB"/><path d="M46.943 57.605l-2.998-1.742 1.772-3.03 2.998 1.741-1.772 3.031zm18.71-32.356l-2.999-1.743 1.773-3.069 2.997 1.742-1.772 3.07z" fill="#454FE4"/><path d="M67.424 22.179l-2.998-1.742 1.404.744 4.588 2.664-2.994-1.666z" fill="#4878FE"/><path d="M48.715 54.574l-2.998-1.741c-1.026-1.034-1.755-2.554-2.06-4.464l2.999 1.743c.305 1.908 1.032 3.43 2.059 4.462z" fill="#454FE4"/><path d="M60.734 25.697l-2.997-1.743c1.803-.659 3.502-.846 4.917-.449l2.998 1.744c-1.416-.397-3.114-.212-4.918.448z" fill="#3E5DEA"/><path d="M58.64 30.052c5.145-2.97 9.33-.586 9.346 5.325.016 5.938-4.14 13.102-9.283 16.071-5.161 2.978-9.321.619-9.338-5.32-.016-5.91 4.116-13.098 9.276-16.076zm.054 18.302c3.637-2.101 6.61-7.221 6.6-11.424-.012-4.18-3.003-5.886-6.644-3.785-3.656 2.11-6.596 7.242-6.584 11.423.012 4.2 2.972 5.897 6.626 3.786" fill="#CCCECE"/><path d="M44.146 51.56l-2.998-1.742-.015-4.84 3 1.74.013 4.842z" fill="#638DFF"/><path d="M44.132 46.72l-2.998-1.743 2.51-1.449 2.997 1.744-2.509 1.447zm12.415-18.606l-2.999-1.742-.008-2.845 2.998 1.742.01 2.845z" fill="#454FE4"/><path d="M56.538 25.268l-2.998-1.742 4.188-2.418 2.999 1.744-4.189 2.416z" fill="#638DFF"/><path d="M46.64 45.271l-2.997-1.743c.294-2.245 1.011-4.57 2.029-6.814l2.998 1.744c-1.018 2.241-1.736 4.569-2.03 6.813z" fill="#454FE4"/><path d="M49.859 32.319l-2.998-1.742.196.094 4.586 2.665-1.784-1.017z" fill="#3498DB"/><path d="M70.706 31.377l2.5-1.443.014 4.84-2.502 1.445a24.976 24.976 0 01-2.027 6.823l1.782.978-2.973 5.15-1.783-1.008a24.538 24.538 0 01-4.904 5.223l.007 2.836-4.187 2.418-.007-2.838c-1.813.664-3.502.846-4.918.45l-1.772 3.06-2.993-1.706 1.772-3.03c-1.027-1.033-1.754-2.555-2.06-4.463l-2.51 1.45-.013-4.843 2.509-1.449c.294-2.243 1.011-4.57 2.028-6.812l-1.784-1.026 2.974-5.113 1.784 1.017a24.442 24.442 0 014.904-5.222l-.009-2.846 4.189-2.416.007 2.845c1.804-.66 3.502-.845 4.918-.448l1.772-3.07 2.993 1.666-1.773 3.08c1.026 1.062 1.722 2.573 2.06 4.452h.002zM58.7 51.448c5.144-2.969 9.301-10.133 9.285-16.07-.015-5.912-4.201-8.297-9.344-5.326-5.162 2.978-9.293 10.166-9.277 16.075.017 5.938 4.177 8.3 9.336 5.321z" fill="#4878FE"/><path d="M43.883 35.654l2.97-5.117 2.998 1.742-2.969 5.115-2.999-1.74z" fill="#638DFF"/><path d="M51.642 33.337l-2.997-1.742a24.44 24.44 0 014.903-5.223l3 1.742a24.442 24.442 0 00-4.906 5.223z" fill="#3E5DEA"/></svg>