<svg width="64" height="75" fill="none" xmlns="http://www.w3.org/2000/svg"><path d="M63.077 25.077C63.077 42 51.23 62.769 36.462 71.23c-7.539 4.308-14.154 4.77-19.077 1.847-.154-.154-.923-.616-8.616-4.923C4 65.384 1.077 59.384.923 51.077c0-16.923 11.846-37.693 26.77-46.154C35.076.615 41.845.308 46.768 3.077l8.308 4.77c.154-.001.154.153.308.153 4.615 2.615 7.692 8.615 7.692 17.077z" fill="#B0B8CF"/><path d="M55.23 7.846c-4.768-2.77-11.538-2.461-19.076 1.846-14.77 8.462-26.77 29.231-26.616 46.154 0 8.462 2.924 14.308 7.847 17.077l-8.616-5.077C4 65.076.923 59.076.923 50.77c0-16.923 11.846-37.692 26.615-46.154C34.923.308 41.692 0 46.615 2.77l8.616 5.077z" fill="#B0B8CF"/><path d="M36.154 9.692C50.924 1.231 62.924 8 62.924 25.077c0 17.077-11.847 37.692-26.616 46.154C21.538 79.846 9.538 72.923 9.385 56c.153-17.077 12-37.692 26.769-46.308z" fill="#D4DAEA"/><path d="M12.615 56c0-16 11.231-35.538 25.077-43.538 12.462-7.231 22.154-2.308 22.154 12.615 0 16-11.23 35.539-25.077 43.539C22.462 75.692 12.615 70.923 12.615 56z" fill="#fff"/><path d="M20.154 52.616c.461-.308.923 0 .923.461 0 .616-.462 1.23-.923 1.539l-2.616 1.538c-.461.308-.923 0-.923-.462 0-.615.462-1.23.924-1.538l2.615-1.538z" fill="#4C5C75"/><path d="M26.154 26.461l3.538 4.462c-4.307 5.23-7.23 12-7.23 18l-6.616 3.846C15.846 44 20 34 26.154 26.461z" fill="#78E75A"/><path d="M36.308 17.538c3.846-2.154 7.384-3.077 10.307-2.769l-3.23 8.615c-2.154-.307-4.462.308-7.077 1.847-2.462 1.384-4.616 3.384-6.616 5.692l-3.538-4.462c2.923-3.692 6.461-6.923 10.154-8.923z" fill="#FEBC1F"/><path d="M49.692 20.615c-2.923 5.077-6.923 12.154-10 17.539-.307-.923-1.077-1.385-2.154-1.077l7.539-13.231c2.308-3.692 2.462-4.77 3.538-5.385.308-.307 1.846.462 1.077 2.154z" fill="#4C5C75"/><path d="M46.615 14.769c6 .615 10.154 5.846 10.154 14.462l-6.615 3.846c0-3.693-1.077-6.462-2.923-8.154l2.461-4.308c.616-.923.616-2 0-2.307-.769-.462-1.692.461-2 1.23l-2.461 4.308c-.616-.154-1.077-.308-1.693-.462l3.077-8.615z" fill="#F45170"/><path d="M33.692 43.385c.308.923 1.077 1.384 2 1.23l-1.538 2.77c-.462.769-1.385 1.538-2 1.23-.616-.307-.616-1.384 0-2.307l1.538-2.923z" fill="#4C5C75"/><path d="M36.615 37.23c.308-.153.616-.307.77-.307.923-.308 1.846.154 2.154 1.077.153.308.153.615.153.923 0 2-1.384 4.308-3.077 5.23-.307.155-.615.309-.923.309-.923.153-1.692-.154-2-1.231-.154-.308-.154-.616-.154-.923 0-1.693 1.385-4.154 3.077-5.077z" fill="#497BFE"/><path d="M54.923 32.462c.462-.308.923 0 .923.461 0 .616-.461 1.231-.923 1.539L52.308 36c-.462.308-.923 0-.923-.461 0-.616.461-1.231.923-1.539l2.615-1.538zM25.385 60.154a.468.468 0 01.615 0c.308.154.308.77 0 1.385l-2.308 4c-.154.307-.461.461-.615.615-.77.462-1.23-.462-.615-1.385l2.307-4c.308-.153.462-.461.616-.615zm22-12.615a.468.468 0 01.615 0l2.308 1.23c.307.154.307.77 0 1.385-.308.462-.77.923-1.231.77l-2.308-1.231c-.307-.154-.307-.77 0-1.385.154-.308.308-.615.616-.77zM36.462 58.308c.461-.308.923 0 .923.461v3.693c0 .615-.462 1.23-.923 1.538-.462.308-.924 0-.924-.461v-3.693c0-.461.462-1.23.924-1.538z" fill="#4C5C75"/></svg>