<svg width="1217" height="566" viewBox="0 0 1217 566" fill="none" xmlns="http://www.w3.org/2000/svg"><style>.moving{animation:moving 3.5s linear infinite;opacity:0;transform:translateX(-10px) translateY(-10px)}.moving2{animation:moving2 3.5s 1s linear infinite;opacity:0;transform:translateX(20px) translateY(-40px)}.moving5{animation:moving5 3.5s 1.7s linear infinite;opacity:0;transform:translateX(20px) translateY(-80px)}.left-slide{animation:leftslide 4.5s linear infinite;opacity:0}.right-slide{animation:rightslide 4.5s .7s linear infinite;opacity:0}@keyframes leftslide{0%{opacity:0;transform:translateX(100px) translateY(-2px)}10%{opacity:1;transform:translateX(100px) translateY(-2px)}40%{opacity:1;transform:translateX(0) translateY(10px)}70%{opacity:1;transform:translateX(-100px) translateY(30px)}80%{opacity:0;transform:translateX(-100px) translateY(30px)}100%{opacity:0;transform:translateX(-100px) translateY(30px)}}@keyframes rightslide{0%{opacity:0;transform:translateX(-100px) translateY(-10px)}10%{opacity:1;transform:translateX(-100px) translateY(-10px)}40%{opacity:1;transform:translateX(0) translateY(0)}70%{opacity:1;transform:translateX(100px) translateY(30px)}80%{opacity:0;transform:translateX(100px) translateY(30px)}100%{opacity:0;transform:translateX(100px) translateY(30px)}}@keyframes moving{0%{opacity:0;transform:translateX(-10px) translateY(-50px)}10%{opacity:1;transform:translateX(-10px) translateY(-40px)}80%{opacity:1;transform:translateX(-20px) translateY(70px)}100%{opacity:0;transform:translateX(-20px) translateY(90px)}}@keyframes moving2{0%{opacity:0;transform:translateX(0) translateY(-40px)}10%{opacity:1;transform:translateX(-10px) translateY(-30px)}80%{opacity:1;transform:translateX(-10px) translateY(70px)}100%{opacity:0;transform:translateX(-10px) translateY(85px)}}@keyframes moving5{0%{opacity:0;transform:translateX(0) translateY(-40px)}10%{opacity:1;transform:translateX(-20px) translateY(-30px)}80%{opacity:1;transform:translateX(-20px) translateY(70px)}100%{opacity:0;transform:translateX(-20px) translateY(90px)}}</style><path fill-rule="evenodd" clip-rule="evenodd" d="M0.0678829 379.905L0.0525513 371.893C0.0525513 371.893 106.481 318.805 107.276 319.26L213.179 372.925V380.15C213.179 380.15 213.179 381.182 212.147 381.698L108.127 441.685C107.332 442.14 106.083 442.14 105.288 441.685L0.692504 381.438C-0.102468 380.983 0.0678829 379.905 0.0678829 379.905Z" fill="#DBDDDE"/><path fill-rule="evenodd" clip-rule="evenodd" d="M0.568581 370.861L105.397 311.341C106.192 310.886 107.441 310.886 108.236 311.341L212.649 371.893C213.444 372.347 213.444 373.086 212.649 373.54L109.145 433.028C108.35 433.482 107.101 433.482 106.306 433.028L0.625364 372.508C-0.169608 372.054 -0.226391 371.315 0.568581 370.861Z" fill="#F3F3F3"/><g clip-path="url(#clip0_36_229)"><path d="M59.3767 259.126V372.876C59.3767 377.344 63.0322 381 67.5004 381H146.497C150.967 381 154.623 377.343 154.623 372.874V280.924C154.623 278.429 153.632 276.037 151.868 274.273L131.351 253.755C129.586 251.991 127.194 251 124.699 251H67.503C63.0335 251 59.3767 254.657 59.3767 259.126Z" fill="url(#paint0_linear_36_229)"/><path d="M81.0283 313.716H132.972C133.593 313.716 134.19 313.469 134.629 313.03C135.069 312.59 135.316 311.994 135.316 311.372V305.656C135.316 305.034 135.069 304.438 134.629 303.999C134.19 303.559 133.593 303.312 132.972 303.312H81.0283C80.4066 303.312 79.8104 303.559 79.3708 303.999C78.9312 304.438 78.6842 305.034 78.6842 305.656V311.372C78.6842 311.994 78.9312 312.59 79.3708 313.03C79.8104 313.469 80.4066 313.716 81.0283 313.716ZM81.0283 329.957H132.972C133.593 329.957 134.19 329.71 134.629 329.271C135.069 328.831 135.316 328.235 135.316 327.613V321.897C135.316 321.275 135.069 320.679 134.629 320.24C134.19 319.8 133.593 319.553 132.972 319.553H81.0283C80.4066 319.553 79.8104 319.8 79.3708 320.24C78.9312 320.679 78.6842 321.275 78.6842 321.897V327.613C78.6842 328.235 78.9312 328.831 79.3708 329.271C79.8104 329.71 80.4066 329.957 81.0283 329.957ZM81.0283 346.198H132.972C133.593 346.198 134.19 345.951 134.629 345.512C135.069 345.072 135.316 344.476 135.316 343.854V338.138C135.316 337.517 135.069 336.92 134.629 336.481C134.19 336.041 133.593 335.794 132.972 335.794H81.0283C80.4066 335.794 79.8104 336.041 79.3708 336.481C78.9312 336.92 78.6842 337.517 78.6842 338.138V343.854C78.6843 344.476 78.9313 345.072 79.3709 345.512C79.8105 345.951 80.4067 346.198 81.0283 346.198ZM80.3814 362.439H106.676C107.126 362.439 107.558 362.261 107.876 361.942C108.194 361.624 108.373 361.192 108.373 360.742V353.732C108.373 353.282 108.194 352.851 107.876 352.532C107.558 352.214 107.126 352.035 106.676 352.035H80.3814C79.9313 352.035 79.4996 352.214 79.1813 352.532C78.863 352.851 78.6842 353.282 78.6842 353.732V360.742C78.6842 361.192 78.863 361.624 79.1813 361.942C79.4996 362.261 79.9313 362.439 80.3814 362.439Z" fill="#EBEFF0"/><path d="M131.35 253.755C130.152 252.557 128.652 251.705 127.01 251.289V277.778L154.623 305.392V280.924C154.623 278.429 153.632 276.037 151.868 274.273L131.35 253.755Z" fill="url(#paint1_linear_36_229)"/><path d="M154.345 278.642C154.375 278.773 154.403 278.9 154.428 279.023H129.537C127.775 279.023 126.346 277.594 126.346 275.831V251.148C126.55 251.184 126.753 251.225 126.956 251.27C128.811 251.68 130.503 252.634 131.847 253.978L151.641 273.772C152.981 275.11 153.918 276.798 154.345 278.642Z" fill="url(#paint2_linear_36_229)"/><path d="M154.623 364.992V372.874C154.623 377.343 150.967 381 146.497 381H67.5004C63.0322 381 59.3767 377.344 59.3767 372.876V364.992H154.623Z" fill="url(#paint3_linear_36_229)"/><path d="M154.623 364.992V372.874C154.623 377.343 150.967 381 146.497 381H67.5004C63.0322 381 59.3767 377.344 59.3767 372.876V364.992H154.623Z" fill="url(#paint4_linear_36_229)"/></g><path fill-rule="evenodd" clip-rule="evenodd" d="M1003.07 379.905L1003.05 371.893C1003.05 371.893 1109.48 318.805 1110.28 319.26L1216.18 372.925V380.15C1216.18 380.15 1216.18 381.182 1215.15 381.698L1111.13 441.685C1110.33 442.14 1109.08 442.14 1108.29 441.685L1003.69 381.438C1002.9 380.983 1003.07 379.905 1003.07 379.905Z" fill="#DBDDDE"/><path fill-rule="evenodd" clip-rule="evenodd" d="M1003.57 370.861L1108.4 311.341C1109.19 310.886 1110.44 310.886 1111.24 311.341L1215.65 371.893C1216.44 372.347 1216.44 373.086 1215.65 373.54L1112.14 433.028C1111.35 433.482 1110.1 433.482 1109.31 433.028L1003.63 372.508C1002.83 372.054 1002.77 371.315 1003.57 370.861Z" fill="#F3F3F3"/><g clip-path="url(#clip1_36_229)"><path d="M1169.14 381H1050.86C1047.62 381 1045 378.376 1045 375.138V256.862C1045 253.624 1047.62 251 1050.86 251H1169.14C1172.38 251 1175 253.624 1175 256.862V375.138C1175 378.376 1172.38 381 1169.14 381Z" fill="url(#paint5_linear_36_229)"/><path d="M1045 297.188H1175V318.141H1045V297.188Z" fill="url(#paint6_linear_36_229)"/><path d="M1045 297.188H1175V318.141H1045V297.188Z" fill="url(#paint7_linear_36_229)"/><path d="M1045 339.094H1175V360.047H1045V339.094Z" fill="url(#paint8_linear_36_229)"/><path d="M1045 339.094H1175V360.047H1045V339.094Z" fill="url(#paint9_linear_36_229)"/><path d="M1175 360.047V375.137C1175 378.375 1172.37 381 1169.14 381H1050.86C1047.63 381 1045 378.375 1045 375.137V360.047H1175Z" fill="url(#paint10_linear_36_229)"/><path d="M1175 360.047V375.137C1175 378.375 1172.37 381 1169.14 381H1050.86C1047.63 381 1045 378.375 1045 375.137V360.047H1175Z" fill="url(#paint11_linear_36_229)"/><path d="M1169.14 251H1050.86C1047.62 251 1045 253.624 1045 256.862V276.49H1175V256.862C1175 253.624 1172.38 251 1169.14 251Z" fill="#2C7BE5"/><path d="M1084.44 268.283H1059.12C1055.8 268.283 1053.47 265.192 1054.57 262.241C1055.25 260.424 1057.07 259.207 1059.12 259.207H1084.44C1087.77 259.207 1090.09 262.298 1088.99 265.249C1088.31 267.066 1086.49 268.283 1084.44 268.283Z" fill="#639FEF"/><path d="M1126.66 263.745C1126.66 264.378 1126.91 264.985 1127.36 265.433C1127.81 265.881 1128.41 266.132 1129.05 266.132H1152.03C1152.66 266.132 1153.27 265.881 1153.72 265.433C1154.17 264.985 1154.42 264.378 1154.42 263.745C1154.42 263.112 1154.17 262.505 1153.72 262.057C1153.27 261.609 1152.66 261.358 1152.03 261.358H1129.05C1128.41 261.358 1127.81 261.609 1127.36 262.057C1126.91 262.505 1126.66 263.112 1126.66 263.745ZM1156.84 263.745C1156.84 264.378 1157.1 264.985 1157.54 265.433C1157.99 265.881 1158.6 266.132 1159.23 266.132H1163.32C1163.95 266.132 1164.56 265.881 1165 265.433C1165.45 264.985 1165.7 264.378 1165.7 263.745C1165.7 263.112 1165.45 262.505 1165 262.057C1164.56 261.609 1163.95 261.358 1163.32 261.358H1159.23C1158.6 261.358 1157.99 261.609 1157.54 262.057C1157.1 262.505 1156.84 263.112 1156.84 263.745Z" fill="#639FEF"/><path d="M1061.32 293.914C1065.2 293.914 1068.34 290.77 1068.34 286.891C1068.34 283.013 1065.2 279.869 1061.32 279.869C1057.44 279.869 1054.3 283.013 1054.3 286.891C1054.3 290.77 1057.44 293.914 1061.32 293.914Z" fill="url(#paint12_linear_36_229)"/><path d="M1061.32 293.914C1065.2 293.914 1068.34 290.77 1068.34 286.891H1054.3C1054.3 290.77 1057.44 293.914 1061.32 293.914Z" fill="url(#paint13_linear_36_229)"/><path d="M1082.05 286.891C1082.05 287.525 1082.3 288.132 1082.75 288.579C1083.2 289.027 1083.81 289.279 1084.44 289.279H1107.42C1108.06 289.279 1108.66 289.027 1109.11 288.579C1109.56 288.132 1109.81 287.525 1109.81 286.891C1109.81 286.258 1109.56 285.651 1109.11 285.204C1108.66 284.756 1108.06 284.504 1107.42 284.504H1084.44C1083.81 284.504 1083.2 284.756 1082.75 285.204C1082.3 285.651 1082.05 286.258 1082.05 286.891ZM1124.22 286.891C1124.22 287.525 1124.47 288.132 1124.92 288.579C1125.36 289.027 1125.97 289.279 1126.6 289.279H1130.69C1131.32 289.279 1131.93 289.027 1132.38 288.579C1132.82 288.132 1133.08 287.525 1133.08 286.891C1133.08 286.258 1132.82 285.651 1132.38 285.204C1131.93 284.756 1131.32 284.504 1130.69 284.504H1126.6C1125.97 284.504 1125.36 284.756 1124.92 285.204C1124.47 285.651 1124.22 286.258 1124.22 286.891ZM1140.53 286.891C1140.53 287.525 1140.78 288.132 1141.23 288.579C1141.68 289.027 1142.28 289.279 1142.92 289.279H1147C1147.64 289.279 1148.24 289.027 1148.69 288.579C1149.14 288.132 1149.39 287.525 1149.39 286.891C1149.39 286.258 1149.14 285.651 1148.69 285.204C1148.24 284.756 1147.64 284.504 1147 284.504H1142.92C1142.28 284.504 1141.68 284.756 1141.23 285.204C1140.78 285.651 1140.53 286.258 1140.53 286.891ZM1156.84 286.891C1156.84 287.525 1157.1 288.132 1157.54 288.579C1157.99 289.027 1158.6 289.279 1159.23 289.279H1163.32C1163.95 289.279 1164.56 289.027 1165 288.579C1165.45 288.132 1165.7 287.525 1165.7 286.891C1165.7 286.258 1165.45 285.651 1165 285.204C1164.56 284.756 1163.95 284.504 1163.32 284.504H1159.23C1158.6 284.504 1157.99 284.756 1157.54 285.204C1157.1 285.651 1156.84 286.258 1156.84 286.891Z" fill="#7BACDF"/><path d="M1061.32 335.973C1065.2 335.973 1068.34 332.829 1068.34 328.95C1068.34 325.072 1065.2 321.927 1061.32 321.927C1057.44 321.927 1054.3 325.072 1054.3 328.95C1054.3 332.829 1057.44 335.973 1061.32 335.973Z" fill="url(#paint14_linear_36_229)"/><path d="M1061.32 335.973C1065.2 335.973 1068.34 332.829 1068.34 328.95H1054.3C1054.3 332.829 1057.44 335.973 1061.32 335.973Z" fill="url(#paint15_linear_36_229)"/><path d="M1082.05 328.95C1082.05 329.583 1082.3 330.191 1082.75 330.638C1083.2 331.086 1083.81 331.337 1084.44 331.337H1107.42C1108.06 331.337 1108.66 331.086 1109.11 330.638C1109.56 330.191 1109.81 329.583 1109.81 328.95C1109.81 328.317 1109.56 327.71 1109.11 327.262C1108.66 326.815 1108.06 326.563 1107.42 326.563H1084.44C1083.81 326.563 1083.2 326.815 1082.75 327.262C1082.3 327.71 1082.05 328.317 1082.05 328.95ZM1124.22 328.95C1124.22 329.583 1124.47 330.191 1124.92 330.638C1125.36 331.086 1125.97 331.337 1126.6 331.337H1130.69C1131.32 331.337 1131.93 331.086 1132.38 330.638C1132.82 330.191 1133.08 329.583 1133.08 328.95C1133.08 328.317 1132.82 327.71 1132.38 327.262C1131.93 326.815 1131.32 326.563 1130.69 326.563H1126.6C1125.97 326.563 1125.36 326.815 1124.92 327.262C1124.47 327.71 1124.22 328.317 1124.22 328.95ZM1140.53 328.95C1140.53 329.583 1140.78 330.191 1141.23 330.638C1141.68 331.086 1142.28 331.337 1142.92 331.337H1147C1147.64 331.337 1148.24 331.086 1148.69 330.638C1149.14 330.191 1149.39 329.583 1149.39 328.95C1149.39 328.317 1149.14 327.71 1148.69 327.262C1148.24 326.815 1147.64 326.563 1147 326.563H1142.92C1142.28 326.563 1141.68 326.815 1141.23 327.262C1140.78 327.71 1140.53 328.317 1140.53 328.95ZM1156.84 328.95C1156.84 329.583 1157.1 330.191 1157.54 330.638C1157.99 331.086 1158.6 331.337 1159.23 331.337H1163.32C1163.95 331.337 1164.56 331.086 1165 330.638C1165.45 330.191 1165.7 329.583 1165.7 328.95C1165.7 328.317 1165.45 327.71 1165 327.262C1164.56 326.815 1163.95 326.563 1163.32 326.563H1159.23C1158.6 326.563 1157.99 326.815 1157.54 327.262C1157.1 327.71 1156.84 328.317 1156.84 328.95Z" fill="#7BACDF"/><path d="M1061.32 378.032C1065.2 378.032 1068.34 374.888 1068.34 371.009C1068.34 367.131 1065.2 363.986 1061.32 363.986C1057.44 363.986 1054.3 367.131 1054.3 371.009C1054.3 374.888 1057.44 378.032 1061.32 378.032Z" fill="url(#paint16_linear_36_229)"/><path d="M1061.32 378.032C1065.2 378.032 1068.34 374.888 1068.34 371.009H1054.3C1054.3 374.888 1057.44 378.032 1061.32 378.032Z" fill="url(#paint17_linear_36_229)"/><path d="M1082.05 371.009C1082.05 371.642 1082.3 372.249 1082.75 372.697C1083.2 373.145 1083.81 373.396 1084.44 373.396H1107.42C1108.06 373.396 1108.66 373.145 1109.11 372.697C1109.56 372.249 1109.81 371.642 1109.81 371.009C1109.81 370.376 1109.56 369.769 1109.11 369.321C1108.66 368.873 1108.06 368.622 1107.42 368.622H1084.44C1083.81 368.622 1083.2 368.873 1082.75 369.321C1082.3 369.769 1082.05 370.376 1082.05 371.009ZM1124.22 371.009C1124.22 371.642 1124.47 372.249 1124.92 372.697C1125.36 373.145 1125.97 373.396 1126.6 373.396H1130.69C1131.32 373.396 1131.93 373.145 1132.38 372.697C1132.82 372.249 1133.08 371.642 1133.08 371.009C1133.08 370.376 1132.82 369.769 1132.38 369.321C1131.93 368.873 1131.32 368.622 1130.69 368.622H1126.6C1125.97 368.622 1125.36 368.873 1124.92 369.321C1124.47 369.769 1124.22 370.376 1124.22 371.009ZM1140.53 371.009C1140.53 371.642 1140.78 372.249 1141.23 372.697C1141.68 373.145 1142.28 373.396 1142.92 373.396H1147C1147.64 373.396 1148.24 373.145 1148.69 372.697C1149.14 372.249 1149.39 371.642 1149.39 371.009C1149.39 370.376 1149.14 369.769 1148.69 369.321C1148.24 368.873 1147.64 368.622 1147 368.622H1142.92C1142.28 368.622 1141.68 368.873 1141.23 369.321C1140.78 369.769 1140.53 370.376 1140.53 371.009ZM1156.84 371.009C1156.84 371.642 1157.1 372.249 1157.54 372.697C1157.99 373.145 1158.6 373.396 1159.23 373.396H1163.32C1163.95 373.396 1164.56 373.145 1165 372.697C1165.45 372.249 1165.7 371.642 1165.7 371.009C1165.7 370.376 1165.45 369.769 1165 369.321C1164.56 368.873 1163.95 368.622 1163.32 368.622H1159.23C1158.6 368.622 1157.99 368.873 1157.54 369.321C1157.1 369.769 1156.84 370.376 1156.84 371.009Z" fill="#7BACDF"/><path d="M1061.32 356.593C1065.2 356.593 1068.34 353.449 1068.34 349.571C1068.34 345.692 1065.2 342.548 1061.32 342.548C1057.44 342.548 1054.3 345.692 1054.3 349.571C1054.3 353.449 1057.44 356.593 1061.32 356.593Z" fill="url(#paint18_linear_36_229)"/><path d="M1061.32 356.593C1065.2 356.593 1068.34 353.449 1068.34 349.571H1054.3C1054.3 353.449 1057.44 356.593 1061.32 356.593Z" fill="url(#paint19_linear_36_229)"/><path d="M1082.05 349.571C1082.05 350.204 1082.3 350.811 1082.75 351.259C1083.2 351.706 1083.81 351.958 1084.44 351.958H1107.42C1108.06 351.958 1108.66 351.706 1109.11 351.259C1109.56 350.811 1109.81 350.204 1109.81 349.571C1109.81 348.937 1109.56 348.33 1109.11 347.883C1108.66 347.435 1108.06 347.183 1107.42 347.183H1084.44C1083.81 347.183 1083.2 347.435 1082.75 347.883C1082.3 348.33 1082.05 348.937 1082.05 349.571ZM1124.22 349.571C1124.22 350.204 1124.47 350.811 1124.92 351.259C1125.36 351.706 1125.97 351.958 1126.6 351.958H1130.69C1131.32 351.958 1131.93 351.706 1132.38 351.259C1132.82 350.811 1133.08 350.204 1133.08 349.571C1133.08 348.937 1132.82 348.33 1132.38 347.883C1131.93 347.435 1131.32 347.183 1130.69 347.183H1126.6C1125.97 347.183 1125.36 347.435 1124.92 347.883C1124.47 348.33 1124.22 348.937 1124.22 349.571ZM1140.53 349.571C1140.53 350.204 1140.78 350.811 1141.23 351.259C1141.68 351.706 1142.28 351.958 1142.92 351.958H1147C1147.64 351.958 1148.24 351.706 1148.69 351.259C1149.14 350.811 1149.39 350.204 1149.39 349.571C1149.39 348.937 1149.14 348.33 1148.69 347.883C1148.24 347.435 1147.64 347.183 1147 347.183H1142.92C1142.28 347.183 1141.68 347.435 1141.23 347.883C1140.78 348.33 1140.53 348.937 1140.53 349.571ZM1156.84 349.571C1156.84 350.204 1157.1 350.811 1157.54 351.259C1157.99 351.706 1158.6 351.958 1159.23 351.958H1163.32C1163.95 351.958 1164.56 351.706 1165 351.259C1165.45 350.811 1165.7 350.204 1165.7 349.571C1165.7 348.937 1165.45 348.33 1165 347.883C1164.56 347.435 1163.95 347.183 1163.32 347.183H1159.23C1158.6 347.183 1157.99 347.435 1157.54 347.883C1157.1 348.33 1156.84 348.937 1156.84 349.571Z" fill="#7BACDF"/><path d="M1061.32 314.688C1065.2 314.688 1068.34 311.543 1068.34 307.665C1068.34 303.786 1065.2 300.642 1061.32 300.642C1057.44 300.642 1054.3 303.786 1054.3 307.665C1054.3 311.543 1057.44 314.688 1061.32 314.688Z" fill="url(#paint20_linear_36_229)"/><path d="M1061.32 314.687C1065.2 314.687 1068.34 311.543 1068.34 307.665H1054.3C1054.3 311.543 1057.44 314.687 1061.32 314.687Z" fill="url(#paint21_linear_36_229)"/><path d="M1082.05 307.665C1082.05 308.298 1082.3 308.905 1082.75 309.353C1083.2 309.8 1083.81 310.052 1084.44 310.052H1107.42C1108.06 310.052 1108.66 309.8 1109.11 309.353C1109.56 308.905 1109.81 308.298 1109.81 307.665C1109.81 307.032 1109.56 306.424 1109.11 305.977C1108.66 305.529 1108.06 305.278 1107.42 305.278H1084.44C1083.81 305.278 1083.2 305.529 1082.75 305.977C1082.3 306.424 1082.05 307.032 1082.05 307.665ZM1124.22 307.665C1124.22 308.298 1124.47 308.905 1124.92 309.353C1125.36 309.8 1125.97 310.052 1126.6 310.052H1130.69C1131.32 310.052 1131.93 309.8 1132.38 309.353C1132.82 308.905 1133.08 308.298 1133.08 307.665C1133.08 307.032 1132.82 306.424 1132.38 305.977C1131.93 305.529 1131.32 305.278 1130.69 305.278H1126.6C1125.97 305.278 1125.36 305.529 1124.92 305.977C1124.47 306.424 1124.22 307.032 1124.22 307.665ZM1140.53 307.665C1140.53 308.298 1140.78 308.905 1141.23 309.353C1141.68 309.8 1142.28 310.052 1142.92 310.052H1147C1147.64 310.052 1148.24 309.8 1148.69 309.353C1149.14 308.905 1149.39 308.298 1149.39 307.665C1149.39 307.032 1149.14 306.424 1148.69 305.977C1148.24 305.529 1147.64 305.278 1147 305.278H1142.92C1142.28 305.278 1141.68 305.529 1141.23 305.977C1140.78 306.424 1140.53 307.032 1140.53 307.665ZM1156.84 307.665C1156.84 308.298 1157.1 308.905 1157.54 309.353C1157.99 309.8 1158.6 310.052 1159.23 310.052H1163.32C1163.95 310.052 1164.56 309.8 1165 309.353C1165.45 308.905 1165.7 308.298 1165.7 307.665C1165.7 307.032 1165.45 306.424 1165 305.977C1164.56 305.529 1163.95 305.278 1163.32 305.278H1159.23C1158.6 305.278 1157.99 305.529 1157.54 305.977C1157.1 306.424 1156.84 307.032 1156.84 307.665Z" fill="#7BACDF"/></g><path d="M236 373.5C262 356 345.6 321 472 321" stroke="#BCC2DA" stroke-width="3" stroke-dasharray="4 4"/><path d="M981 373.5C955 356 871.4 321 745 321" stroke="#BCC2DA" stroke-width="3" stroke-dasharray="4 4"/><g clip-path="url(#clip2_36_229)" class="left-slide"><path d="M359.087 304.267L340.116 333.679C339.371 334.835 339.706 336.39 340.861 337.135L361.287 350.31C362.443 351.056 363.999 350.72 364.744 349.564L380.08 325.789C380.496 325.144 380.639 324.36 380.477 323.61L378.593 314.882C378.432 314.132 377.978 313.477 377.333 313.061L362.544 303.521C361.388 302.776 359.833 303.111 359.087 304.267Z" fill="url(#paint22_linear_36_229)"/><path d="M355.581 321.994L369.012 330.657C369.173 330.761 369.368 330.796 369.555 330.756C369.742 330.715 369.905 330.602 370.009 330.442L370.963 328.964C371.066 328.803 371.102 328.608 371.061 328.421C371.021 328.234 370.908 328.07 370.747 327.967L357.316 319.303C357.156 319.2 356.96 319.164 356.773 319.204C356.586 319.245 356.423 319.358 356.319 319.518L355.366 320.996C355.262 321.157 355.227 321.353 355.267 321.54C355.307 321.727 355.42 321.89 355.581 321.994ZM352.872 326.193L366.303 334.856C366.464 334.96 366.659 334.996 366.846 334.955C367.033 334.915 367.197 334.802 367.3 334.641L368.254 333.163C368.357 333.002 368.393 332.807 368.353 332.62C368.312 332.433 368.199 332.27 368.039 332.166L354.608 323.503C354.447 323.399 354.252 323.363 354.065 323.404C353.878 323.444 353.714 323.557 353.611 323.718L352.657 325.196C352.554 325.357 352.518 325.552 352.558 325.739C352.599 325.926 352.712 326.089 352.872 326.193ZM350.164 330.392L363.595 339.056C363.755 339.159 363.951 339.195 364.138 339.155C364.325 339.114 364.488 339.001 364.592 338.841L365.545 337.363C365.649 337.202 365.684 337.006 365.644 336.819C365.604 336.632 365.491 336.469 365.33 336.365L351.899 327.702C351.738 327.598 351.543 327.563 351.356 327.603C351.169 327.644 351.006 327.757 350.902 327.917L349.949 329.395C349.845 329.556 349.809 329.751 349.85 329.938C349.89 330.125 350.003 330.289 350.164 330.392ZM347.288 334.484L354.087 338.869C354.203 338.944 354.344 338.97 354.48 338.941C354.615 338.912 354.733 338.83 354.808 338.714L355.978 336.901C356.053 336.785 356.078 336.643 356.049 336.508C356.02 336.372 355.938 336.254 355.822 336.179L349.023 331.794C348.907 331.719 348.765 331.693 348.63 331.722C348.494 331.751 348.376 331.833 348.301 331.949L347.132 333.762C347.057 333.878 347.031 334.02 347.06 334.155C347.089 334.291 347.171 334.409 347.288 334.484Z" fill="#EBEFF0"/><path d="M378.593 314.882C378.483 314.373 378.238 313.902 377.883 313.521L373.464 320.37L375.999 332.116L380.08 325.789C380.496 325.144 380.639 324.36 380.477 323.61L378.593 314.882Z" fill="url(#paint23_linear_36_229)"/><path d="M380.388 325.153C380.374 325.191 380.36 325.229 380.346 325.265L373.91 321.113C373.455 320.819 373.323 320.212 373.617 319.756L377.734 313.374C377.781 313.417 377.827 313.461 377.872 313.507C378.283 313.922 378.561 314.451 378.685 315.023L380.501 323.442C380.625 324.012 380.585 324.604 380.388 325.153Z" fill="url(#paint24_linear_36_229)"/><path d="M366.059 347.526L364.744 349.564C363.999 350.72 362.443 351.056 361.288 350.31L340.861 337.135C339.706 336.39 339.371 334.835 340.116 333.679L341.431 331.641L366.059 347.526Z" fill="url(#paint25_linear_36_229)"/><path d="M366.059 347.526L364.744 349.564C363.999 350.72 362.443 351.056 361.288 350.31L340.861 337.135C339.706 336.39 339.371 334.835 340.116 333.679L341.431 331.641L366.059 347.526Z" fill="url(#paint26_linear_36_229)"/></g><g class="right-slide"><path d="M877.122 338.219L878.024 334.623C878.808 331.498 878.315 328.189 876.653 325.424C874.991 322.659 872.297 320.664 869.163 319.877L833.629 310.964C830.495 310.178 827.178 310.665 824.408 312.319C821.638 313.972 819.641 316.657 818.857 319.782L817.955 323.377C817.172 326.502 817.665 329.811 819.327 332.576C820.988 335.341 823.682 337.337 826.816 338.123L862.351 347.036C865.484 347.822 868.801 347.335 871.572 345.681C874.342 344.028 876.338 341.343 877.122 338.219Z" fill="#7CB3F4"/><path d="M845.125 332.222C845.019 332.655 845.12 333.119 845.406 333.515C845.692 333.911 846.14 334.205 846.651 334.335C846.906 334.399 847.169 334.421 847.426 334.398C847.682 334.375 847.926 334.309 848.145 334.203C848.364 334.096 848.552 333.952 848.7 333.779C848.848 333.605 848.952 333.405 849.006 333.19L850.854 325.778C850.907 325.563 850.909 325.337 850.86 325.114C850.811 324.892 850.713 324.676 850.569 324.479C850.426 324.283 850.241 324.109 850.026 323.969C849.81 323.829 849.568 323.724 849.313 323.662C848.8 323.536 848.266 323.586 847.828 323.801C847.39 324.016 847.082 324.379 846.973 324.81L845.125 332.222Z" fill="#E2F0FA"/><path d="M844.771 326.131C844.339 326.024 843.875 326.124 843.479 326.41C843.083 326.695 842.787 327.142 842.657 327.654C842.592 327.909 842.57 328.172 842.593 328.428C842.615 328.684 842.681 328.929 842.787 329.148C842.893 329.367 843.037 329.556 843.21 329.704C843.384 329.852 843.584 329.956 843.798 330.011L851.208 331.869C851.423 331.922 851.648 331.925 851.871 331.876C852.094 331.828 852.31 331.729 852.507 331.586C852.704 331.443 852.877 331.259 853.018 331.043C853.158 330.828 853.263 330.586 853.326 330.33C853.453 329.818 853.404 329.284 853.189 328.846C852.975 328.407 852.612 328.099 852.181 327.99L844.771 326.131Z" fill="#E2F0FA"/></g><path opacity="0.4" d="M328 509.192L499.587 399.617L601.937 459.823L430.35 565.786L328 509.192Z" fill="url(#paint27_linear_36_229)"/><path d="M499.587 279.206L601.937 219L704.287 276.196L601.937 336.402L499.587 279.206Z" fill="#2C7BE5"/><path d="M517.65 280.441L601.938 231.041L686.226 277.971L601.938 327.371L517.65 280.441Z" fill="#3267AE"/><path d="M601.937 279.206V231.041L686.225 277.971L601.937 327.371V279.206Z" fill="#1E5094"/><path d="M499.587 279.206V399.618L601.937 459.824V336.402L499.587 279.206Z" fill="#1E5094"/><path d="M601.937 336.401L704.287 276.195V397.209L601.937 459.824V336.401Z" fill="#2C7BE5"/><g clip-path="url(#clip3_36_229)"><path fill-rule="evenodd" clip-rule="evenodd" d="M641.252 385.366C641.13 385.575 641.049 385.808 640.967 386.041L639.706 390.721C639.38 391.885 639.828 392.789 640.723 392.644L649.516 391.286C649.841 391.238 650.208 391.026 650.533 390.745V377.544C648.335 377.929 646.341 377.64 644.712 376.767C641.741 375.136 639.868 371.615 639.787 366.549C639.706 361.436 641.497 355.753 644.387 350.645C647.277 345.583 651.307 341.118 655.784 338.44L655.825 338.416C660.343 335.715 664.414 335.41 667.426 336.971C670.398 338.556 672.27 342.077 672.351 347.143V347.19C672.433 352.302 670.642 357.985 667.752 363.093C666.124 365.939 664.129 368.578 661.931 370.824V384.211C662.175 384.07 662.46 383.859 662.704 383.625L671.415 374.598C672.311 373.709 672.718 372.312 672.392 371.478L671.008 368.418C670.967 368.349 670.927 368.279 670.886 368.21C671.456 367.37 671.985 366.506 672.474 365.62C672.962 364.78 673.41 363.964 673.817 363.125C673.858 363.148 673.898 363.124 673.939 363.147C675.079 363.047 676.218 362.9 677.318 362.823C678.172 362.795 679.19 361.742 679.556 360.508C680.818 356.526 682.039 352.52 683.301 348.538C683.668 347.304 683.261 346.423 682.406 346.452C681.266 346.552 680.167 346.675 679.027 346.775C678.946 346.776 678.864 346.776 678.824 346.8C678.905 345.637 678.986 344.474 678.946 343.336L678.986 343.312L678.946 343.289C678.946 342.592 678.905 341.965 678.864 341.291L681.958 338.017C682.813 337.106 683.22 335.708 682.854 334.944C681.632 332.348 680.411 329.753 679.231 327.181C678.824 326.393 677.847 326.492 676.951 327.428L674.143 330.397C673.491 329.843 672.799 329.313 672.026 328.923C671.537 328.647 671.008 328.395 670.479 328.236L671.537 324.603C671.904 323.369 671.456 322.465 670.601 322.587C667.711 322.908 664.821 323.228 661.89 323.572C661.035 323.647 660.018 324.746 659.692 325.91L658.634 329.403C657.697 329.851 656.761 330.299 655.784 330.909V330.863L655.744 330.933C654.929 331.403 654.075 331.943 653.261 332.552L652.121 330.282C651.754 329.517 650.737 329.686 649.882 330.598C647.033 333.731 644.183 336.817 641.334 339.903C640.438 340.885 640.072 342.258 640.438 343.023L641.497 345.108C640.845 346.088 640.235 347.092 639.665 348.118C639.014 349.238 638.403 350.381 637.833 351.546L634.984 351.936C634.088 352.082 633.111 353.157 632.745 354.391C631.646 358.326 630.547 362.307 629.407 366.312C629.081 367.477 629.529 368.38 630.425 368.235L633.274 367.845C633.193 368.729 633.152 369.589 633.193 370.449C633.193 371.425 633.274 372.354 633.355 373.237C633.315 373.26 633.315 373.307 633.274 373.33C632.175 374.569 631.076 375.808 629.977 377C629.122 377.959 628.756 379.379 629.163 380.12C630.506 382.552 631.849 384.984 633.193 387.416C633.6 388.157 634.617 387.988 635.472 387.029L638.444 383.733C638.973 384.125 639.502 384.517 640.113 384.815C640.479 385.022 640.845 385.182 641.252 385.366Z" fill="white"/><path fill-rule="evenodd" clip-rule="evenodd" d="M656.191 357.31C657.372 356.628 658.308 357.157 658.308 358.505V384.583C658.308 385.931 657.372 387.587 656.191 388.269C655.011 388.95 654.075 388.375 654.075 387.027V360.949C654.075 359.601 655.011 357.991 656.191 357.31Z" fill="white"/><path fill-rule="evenodd" clip-rule="evenodd" d="M643.695 399.714C643.695 398.366 644.59 396.78 645.73 396.122L666.734 383.995C667.874 383.337 668.769 383.889 668.769 385.237C668.769 386.585 667.874 388.218 666.734 388.876L645.73 401.002C644.59 401.661 643.695 401.062 643.695 399.714Z" fill="white"/><path fill-rule="evenodd" clip-rule="evenodd" d="M645.404 404.909C645.404 403.561 646.381 401.882 647.521 401.223L664.862 391.212C666.042 390.53 666.978 391.105 666.978 392.454C666.978 393.755 666.042 395.411 664.862 396.093L647.521 406.104C646.381 406.762 645.404 406.211 645.404 404.909Z" fill="white"/><path fill-rule="evenodd" clip-rule="evenodd" d="M665.228 397.369C664.739 401.044 660.913 405.81 656.232 408.513C651.551 411.215 647.725 410.868 647.236 407.756L665.228 397.369Z" fill="white"/></g><g clip-path="url(#clip4_36_229)"><path fill-rule="evenodd" clip-rule="evenodd" d="M536.252 368.092C536.13 368.161 536.049 368.3 535.967 368.439L534.706 371.662C534.38 372.45 534.828 373.87 535.723 374.759L544.516 383.554C544.841 383.882 545.208 384.093 545.533 384.188V370.987C543.335 368.834 541.341 366.242 539.712 363.489C536.741 358.426 534.868 352.743 534.787 347.583C534.706 342.376 536.497 338.762 539.387 336.99C542.277 335.266 546.307 335.454 550.784 337.946L550.825 337.97C555.343 340.485 559.414 344.881 562.426 349.92C565.398 354.936 567.27 360.619 567.351 365.78V365.826C567.433 371.033 565.642 374.647 562.752 376.419C561.124 377.385 559.129 377.72 556.931 377.428V390.815C557.175 390.956 557.46 391.074 557.704 391.122L566.415 392.154C567.311 392.299 567.718 391.372 567.392 390.161L566.008 385.504C565.967 385.387 565.927 385.271 565.886 385.155C566.456 384.972 566.985 384.72 567.474 384.398C567.962 384.122 568.41 383.823 568.817 383.453C568.858 383.523 568.898 383.547 568.939 383.617C570.079 384.833 571.218 386.002 572.318 387.194C573.172 388.153 574.19 388.275 574.556 387.464C575.818 384.939 577.039 382.343 578.301 379.818C578.668 379.007 578.261 377.656 577.406 376.698C576.266 375.482 575.167 374.336 574.027 373.12C573.946 373.027 573.864 372.933 573.824 372.91C573.905 371.841 573.986 370.773 573.946 369.587L573.986 369.61L573.946 369.54C573.946 368.843 573.905 368.169 573.864 367.448L576.958 367.747C577.813 367.822 578.22 366.895 577.854 365.707C576.632 361.702 575.411 357.696 574.231 353.761C573.824 352.503 572.847 351.474 571.951 351.375L569.143 351.102C568.491 349.796 567.799 348.467 567.026 347.184C566.537 346.344 566.008 345.481 565.479 344.71L566.537 342.3C566.904 341.489 566.456 340.068 565.601 339.203C562.711 336.186 559.821 333.169 556.89 330.129C556.035 329.217 555.018 329.141 554.692 329.929L553.634 332.2C552.697 331.567 551.761 330.933 550.784 330.416V330.369L550.744 330.392C549.929 329.922 549.075 329.475 548.261 329.144L547.121 325.558C546.754 324.37 545.737 323.364 544.882 323.289C542.033 323.132 539.183 322.927 536.334 322.723C535.438 322.671 535.072 323.622 535.438 324.809L536.497 328.117C535.845 328.345 535.235 328.643 534.665 329.011C534.014 329.379 533.403 329.817 532.833 330.325L529.984 327.424C529.088 326.536 528.111 326.483 527.745 327.294C526.646 329.96 525.547 332.672 524.407 335.361C524.081 336.149 524.529 337.57 525.425 338.459L528.274 341.359C528.193 342.149 528.152 342.962 528.193 343.869C528.193 344.845 528.274 345.868 528.355 346.845C528.315 346.821 528.315 346.868 528.274 346.844C527.175 346.814 526.076 346.784 524.977 346.707C524.122 346.678 523.756 347.675 524.163 348.887C525.506 352.87 526.849 356.853 528.193 360.836C528.6 362.047 529.617 363.053 530.472 363.081L533.444 363.216C533.973 364.219 534.502 365.222 535.113 366.225C535.479 366.855 535.845 367.439 536.252 368.092Z" fill="white"/><path fill-rule="evenodd" clip-rule="evenodd" d="M551.191 357.286C552.372 357.968 553.308 359.578 553.308 360.926V387.004C553.308 388.352 552.372 388.927 551.191 388.245C550.011 387.564 549.075 385.908 549.075 384.56V358.482C549.075 357.133 550.011 356.605 551.191 357.286Z" fill="white"/><path fill-rule="evenodd" clip-rule="evenodd" d="M538.695 385.26C538.695 383.912 539.59 383.36 540.73 384.018L561.734 396.145C562.874 396.803 563.769 398.389 563.769 399.737C563.769 401.085 562.874 401.684 561.734 401.026L540.73 388.899C539.59 388.241 538.695 386.609 538.695 385.26Z" fill="white"/><path fill-rule="evenodd" clip-rule="evenodd" d="M540.404 392.43C540.404 391.082 541.381 390.53 542.521 391.188L559.862 401.2C561.042 401.882 561.978 403.538 561.978 404.886C561.978 406.187 561.042 406.762 559.862 406.081L542.521 396.069C541.381 395.411 540.404 393.732 540.404 392.43Z" fill="white"/><path fill-rule="evenodd" clip-rule="evenodd" d="M560.228 407.78C559.739 410.891 555.913 411.239 551.232 408.536C546.551 405.834 542.725 401.068 542.236 397.392L560.228 407.78Z" fill="white"/></g><path fill-rule="evenodd" clip-rule="evenodd" d="M601.483 327.665L562.862 305.637L447 0H767L640.103 305.637L601.483 327.665Z" fill="url(#paint28_linear_36_229)"/><g class="moving"><path d="M671.977 200.63V195.566C671.977 191.166 670.229 186.946 667.117 183.835C664.006 180.723 659.786 178.976 655.386 178.976H605.494C601.093 178.976 596.873 180.723 593.762 183.835C590.651 186.946 588.903 191.166 588.903 195.566V200.63C588.903 205.03 590.651 209.25 593.762 212.361C596.873 215.473 601.093 217.221 605.494 217.221H655.386C659.786 217.221 664.006 215.473 667.117 212.361C670.229 209.25 671.977 205.03 671.977 200.63Z" fill="#4895EF"/><path d="M628.048 203.516C628.05 204.148 628.301 204.752 628.747 205.199C629.193 205.645 629.798 205.897 630.429 205.9C630.743 205.901 631.054 205.841 631.345 205.721C631.636 205.602 631.9 205.427 632.123 205.206C632.346 204.984 632.523 204.721 632.644 204.431C632.765 204.142 632.828 203.831 632.829 203.516V192.68C632.828 192.366 632.765 192.055 632.644 191.765C632.523 191.475 632.346 191.212 632.123 190.991C631.9 190.769 631.636 190.594 631.345 190.475C631.054 190.356 630.743 190.295 630.429 190.296C629.798 190.299 629.193 190.551 628.747 190.997C628.301 191.444 628.05 192.049 628.048 192.68V203.516Z" fill="#E2F0FA"/><path d="M625.02 195.708C624.389 195.709 623.784 195.961 623.338 196.407C622.891 196.853 622.639 197.457 622.637 198.089C622.635 198.403 622.696 198.714 622.815 199.005C622.934 199.295 623.11 199.56 623.331 199.783C623.552 200.006 623.815 200.183 624.105 200.304C624.395 200.425 624.706 200.488 625.02 200.489H635.857C636.171 200.488 636.482 200.425 636.772 200.304C637.062 200.183 637.325 200.006 637.546 199.783C637.767 199.56 637.943 199.295 638.062 199.005C638.181 198.714 638.242 198.403 638.24 198.089C638.238 197.457 637.986 196.853 637.539 196.407C637.093 195.961 636.488 195.709 635.857 195.708H625.02Z" fill="#E2F0FA"/></g><g class="moving2"><path d="M671.977 200.63V195.566C671.977 191.166 670.229 186.946 667.117 183.835C664.006 180.723 659.786 178.976 655.386 178.976H605.494C601.093 178.976 596.873 180.723 593.762 183.835C590.651 186.946 588.903 191.166 588.903 195.566V200.63C588.903 205.03 590.651 209.25 593.762 212.361C596.873 215.473 601.093 217.221 605.494 217.221H655.386C659.786 217.221 664.006 215.473 667.117 212.361C670.229 209.25 671.977 205.03 671.977 200.63Z" fill="#7CB3F4"/><path d="M628.048 203.516C628.05 204.148 628.301 204.752 628.747 205.199C629.193 205.645 629.798 205.897 630.429 205.9C630.743 205.901 631.054 205.841 631.345 205.721C631.636 205.602 631.9 205.427 632.123 205.206C632.346 204.984 632.523 204.721 632.644 204.431C632.765 204.142 632.828 203.831 632.829 203.516V192.68C632.828 192.366 632.765 192.055 632.644 191.765C632.523 191.475 632.346 191.212 632.123 190.991C631.9 190.769 631.636 190.594 631.345 190.475C631.054 190.356 630.743 190.295 630.429 190.296C629.798 190.299 629.193 190.551 628.747 190.997C628.301 191.444 628.05 192.049 628.048 192.68V203.516Z" fill="#E2F0FA"/><path d="M625.02 195.708C624.389 195.709 623.784 195.961 623.338 196.407C622.891 196.853 622.639 197.457 622.637 198.089C622.635 198.403 622.696 198.714 622.815 199.005C622.934 199.295 623.11 199.56 623.331 199.783C623.552 200.006 623.815 200.183 624.105 200.304C624.395 200.425 624.706 200.488 625.02 200.489H635.857C636.171 200.488 636.482 200.425 636.772 200.304C637.062 200.183 637.325 200.006 637.546 199.783C637.767 199.56 637.943 199.295 638.062 199.005C638.181 198.714 638.242 198.403 638.24 198.089C638.238 197.457 637.986 196.853 637.539 196.407C637.093 195.961 636.488 195.709 635.857 195.708H625.02Z" fill="#E2F0FA"/></g><g class="moving5"><path d="M671.977 200.63V195.566C671.977 191.166 670.229 186.946 667.117 183.835C664.006 180.723 659.786 178.976 655.386 178.976H605.494C601.093 178.976 596.873 180.723 593.762 183.835C590.651 186.946 588.903 191.166 588.903 195.566V200.63C588.903 205.03 590.651 209.25 593.762 212.361C596.873 215.473 601.093 217.221 605.494 217.221H655.386C659.786 217.221 664.006 215.473 667.117 212.361C670.229 209.25 671.977 205.03 671.977 200.63Z" fill="#4895EF"/><path d="M625.02 195.708C624.389 195.709 623.784 195.961 623.338 196.407C622.891 196.853 622.639 197.457 622.637 198.089C622.635 198.403 622.696 198.714 622.815 199.005C622.934 199.295 623.11 199.56 623.331 199.783C623.552 200.006 623.815 200.183 624.105 200.304C624.395 200.425 624.706 200.488 625.02 200.489H635.857C636.171 200.488 636.482 200.425 636.772 200.304C637.062 200.183 637.325 200.006 637.546 199.783C637.767 199.56 637.943 199.295 638.062 199.005C638.181 198.714 638.242 198.403 638.24 198.089C638.238 197.457 637.986 196.853 637.539 196.407C637.093 195.961 636.488 195.709 635.857 195.708H625.02Z" fill="#E2F0FA"/></g><defs><linearGradient id="paint0_linear_36_229" x1="82.0586" y1="301.686" x2="143.897" y2="363.524" gradientUnits="userSpaceOnUse"><stop stop-color="#7FAEF4"/><stop offset="1" stop-color="#4C8DF1"/></linearGradient><linearGradient id="paint1_linear_36_229" x1="127.01" y1="251.289" x2="154.623" y2="251.289" gradientUnits="userSpaceOnUse"><stop stop-color="#4C8DF1" stop-opacity="0"/><stop offset="1" stop-color="#4256AC"/></linearGradient><linearGradient id="paint2_linear_36_229" x1="129.501" y1="265.97" x2="140.9" y2="277.37" gradientUnits="userSpaceOnUse"><stop stop-color="#A7C5FD"/><stop offset="1" stop-color="#7FAEF4"/></linearGradient><linearGradient id="paint3_linear_36_229" x1="59.3767" y1="364.992" x2="154.623" y2="364.992" gradientUnits="userSpaceOnUse"><stop stop-color="#4C8DF1" stop-opacity="0"/><stop offset="1" stop-color="#4256AC"/></linearGradient><linearGradient id="paint4_linear_36_229" x1="82.0586" y1="371.234" x2="83.9058" y2="386.235" gradientUnits="userSpaceOnUse"><stop stop-color="#7FAEF4"/><stop offset="1" stop-color="#4C8DF1"/></linearGradient><linearGradient id="paint5_linear_36_229" x1="1062.33" y1="268.333" x2="1163.34" y2="369.337" gradientUnits="userSpaceOnUse"><stop stop-color="#EAF6FF"/><stop offset="1" stop-color="#B3DAFE"/></linearGradient><linearGradient id="paint6_linear_36_229" x1="1045" y1="297.188" x2="1175" y2="297.188" gradientUnits="userSpaceOnUse"><stop stop-color="#8AC9FE" stop-opacity="0"/><stop offset="0.063" stop-color="#85C2F3" stop-opacity="0.063"/><stop offset="0.368" stop-color="#70A3C3" stop-opacity="0.368"/><stop offset="0.636" stop-color="#608CA0" stop-opacity="0.636"/><stop offset="0.856" stop-color="#577E8B" stop-opacity="0.856"/><stop offset="1" stop-color="#537983"/></linearGradient><linearGradient id="paint7_linear_36_229" x1="1062.33" y1="299.982" x2="1067.45" y2="331.717" gradientUnits="userSpaceOnUse"><stop stop-color="#EAF6FF"/><stop offset="1" stop-color="#B3DAFE"/></linearGradient><linearGradient id="paint8_linear_36_229" x1="1045" y1="339.094" x2="1175" y2="339.094" gradientUnits="userSpaceOnUse"><stop stop-color="#8AC9FE" stop-opacity="0"/><stop offset="0.063" stop-color="#85C2F3" stop-opacity="0.063"/><stop offset="0.368" stop-color="#70A3C3" stop-opacity="0.368"/><stop offset="0.636" stop-color="#608CA0" stop-opacity="0.636"/><stop offset="0.856" stop-color="#577E8B" stop-opacity="0.856"/><stop offset="1" stop-color="#537983"/></linearGradient><linearGradient id="paint9_linear_36_229" x1="1062.33" y1="341.888" x2="1067.45" y2="373.622" gradientUnits="userSpaceOnUse"><stop stop-color="#EAF6FF"/><stop offset="1" stop-color="#B3DAFE"/></linearGradient><linearGradient id="paint10_linear_36_229" x1="1045" y1="360.047" x2="1175" y2="360.047" gradientUnits="userSpaceOnUse"><stop stop-color="#8AC9FE" stop-opacity="0"/><stop offset="0.063" stop-color="#85C2F3" stop-opacity="0.063"/><stop offset="0.368" stop-color="#70A3C3" stop-opacity="0.368"/><stop offset="0.636" stop-color="#608CA0" stop-opacity="0.636"/><stop offset="0.856" stop-color="#577E8B" stop-opacity="0.856"/><stop offset="1" stop-color="#537983"/></linearGradient><linearGradient id="paint11_linear_36_229" x1="1062.33" y1="362.841" x2="1067.45" y2="394.575" gradientUnits="userSpaceOnUse"><stop stop-color="#EAF6FF"/><stop offset="1" stop-color="#B3DAFE"/></linearGradient><linearGradient id="paint12_linear_36_229" x1="1059.17" y1="284.747" x2="1067.11" y2="292.686" gradientUnits="userSpaceOnUse"><stop stop-color="#FD4755"/><stop offset="1" stop-color="#D2024E"/></linearGradient><linearGradient id="paint13_linear_36_229" x1="1061.32" y1="287.817" x2="1061.32" y2="294.662" gradientUnits="userSpaceOnUse"><stop stop-color="#C00148" stop-opacity="0"/><stop offset="1" stop-color="#6D3326"/></linearGradient><linearGradient id="paint14_linear_36_229" x1="1055.27" y1="322.902" x2="1062.02" y2="329.653" gradientUnits="userSpaceOnUse"><stop stop-color="#FEE97D"/><stop offset="1" stop-color="#FAC600"/></linearGradient><linearGradient id="paint15_linear_36_229" x1="1061.32" y1="329.876" x2="1061.32" y2="336.721" gradientUnits="userSpaceOnUse"><stop stop-color="#FAC600" stop-opacity="0"/><stop offset="0.69" stop-color="#D68C3D" stop-opacity="0.69"/><stop offset="1" stop-color="#C5715A"/></linearGradient><linearGradient id="paint16_linear_36_229" x1="1058.09" y1="367.782" x2="1063.2" y2="372.886" gradientUnits="userSpaceOnUse"><stop stop-color="#C5715A"/><stop offset="1" stop-color="#883F2E"/></linearGradient><linearGradient id="paint17_linear_36_229" x1="1061.32" y1="371.934" x2="1061.32" y2="378.78" gradientUnits="userSpaceOnUse"><stop stop-color="#883F2E" stop-opacity="0"/><stop offset="1" stop-color="#6D3326"/></linearGradient><linearGradient id="paint18_linear_36_229" x1="1058.23" y1="346.484" x2="1066.58" y2="354.832" gradientUnits="userSpaceOnUse"><stop stop-color="#8BC727"/><stop offset="1" stop-color="#017B4E"/></linearGradient><linearGradient id="paint19_linear_36_229" x1="1061.32" y1="350.496" x2="1061.32" y2="357.341" gradientUnits="userSpaceOnUse"><stop stop-color="#017B4E" stop-opacity="0"/><stop offset="1" stop-color="#026841"/></linearGradient><linearGradient id="paint20_linear_36_229" x1="1059.56" y1="305.903" x2="1068.17" y2="314.512" gradientUnits="userSpaceOnUse"><stop stop-color="#26A6FE"/><stop offset="1" stop-color="#2740B0"/></linearGradient><linearGradient id="paint21_linear_36_229" x1="1061.32" y1="308.59" x2="1061.32" y2="315.435" gradientUnits="userSpaceOnUse"><stop stop-color="#2740B0" stop-opacity="0"/><stop offset="1" stop-color="#192A7D"/></linearGradient><linearGradient id="paint22_linear_36_229" x1="357.854" y1="319.055" x2="363.53" y2="345.358" gradientUnits="userSpaceOnUse"><stop stop-color="#7FAEF4"/><stop offset="1" stop-color="#4C8DF1"/></linearGradient><linearGradient id="paint23_linear_36_229" x1="377.883" y1="313.521" x2="385.022" y2="318.126" gradientUnits="userSpaceOnUse"><stop stop-color="#4C8DF1" stop-opacity="0"/><stop offset="1" stop-color="#4256AC"/></linearGradient><linearGradient id="paint24_linear_36_229" x1="376.078" y1="317.732" x2="377.124" y2="322.581" gradientUnits="userSpaceOnUse"><stop stop-color="#A7C5FD"/><stop offset="1" stop-color="#7FAEF4"/></linearGradient><linearGradient id="paint25_linear_36_229" x1="341.431" y1="331.641" x2="366.059" y2="347.526" gradientUnits="userSpaceOnUse"><stop stop-color="#4C8DF1" stop-opacity="0"/><stop offset="1" stop-color="#4256AC"/></linearGradient><linearGradient id="paint26_linear_36_229" x1="346.255" y1="337.038" x2="344.23" y2="341.225" gradientUnits="userSpaceOnUse"><stop stop-color="#7FAEF4"/><stop offset="1" stop-color="#4C8DF1"/></linearGradient><linearGradient id="paint27_linear_36_229" x1="451.422" y1="486.916" x2="505.608" y2="399.617" gradientUnits="userSpaceOnUse"><stop offset="0.132597" stop-color="#C4C4C4" stop-opacity="0"/><stop offset="1" stop-color="#484848"/></linearGradient><linearGradient id="paint28_linear_36_229" x1="594.586" y1="52.3162" x2="594.586" y2="329.021" gradientUnits="userSpaceOnUse"><stop stop-color="#C6EAFF" stop-opacity="0"/><stop offset="0.64517" stop-color="#A4D9FF" stop-opacity="0.43"/><stop offset="1" stop-color="#D0E9FF" stop-opacity="0"/></linearGradient><clipPath id="clip0_36_229"><rect width="130" height="130" fill="white" transform="translate(42 251)"/></clipPath><clipPath id="clip1_36_229"><rect width="130" height="130" fill="white" transform="translate(1045 251)"/></clipPath><clipPath id="clip2_36_229"><rect width="40" height="40" fill="white" transform="translate(355.95 299.268) rotate(32.8232)"/></clipPath><clipPath id="clip3_36_229"><rect width="62.8427" height="81.8141" fill="white" transform="matrix(0.866025 -0.5 0 1 629 342.421)"/></clipPath><clipPath id="clip4_36_229"><rect width="62.8427" height="81.8141" fill="white" transform="matrix(0.866025 0.5 0 1 524 311)"/></clipPath></defs></svg>